<?xml version="1.0" encoding="utf-8"?>
<!-- Generator: Adobe Illustrator 27.5.0, SVG Export Plug-In . SVG Version: 6.00 Build 0)  -->
<svg version="1.1" xmlns="http://www.w3.org/2000/svg" xmlns:xlink="http://www.w3.org/1999/xlink" x="0px" y="0px"
	 viewBox="0 0 500 500" style="enable-background:new 0 0 500 500;" xml:space="preserve">
<g id="BACKGROUND">
	<rect style="fill:#FFFFFF;" width="500" height="500"/>
</g>
<g id="OBJECTS">
	<g>
		<g>
			<path style="fill:#C0DCD3;" d="M448.635,169.227h-146.55c-2.261,0-4.1-1.839-4.1-4.1V48.835c0-2.261,1.839-4.1,4.1-4.1h146.55
				c2.261,0,4.1,1.839,4.1,4.1v116.292C452.734,167.388,450.895,169.227,448.635,169.227z M302.085,45.486
				c-1.847,0-3.35,1.502-3.35,3.35v116.292c0,1.847,1.503,3.35,3.35,3.35h146.55c1.847,0,3.35-1.503,3.35-3.35V48.835
				c0-1.847-1.503-3.35-3.35-3.35H302.085z M445.285,161.778H305.435V52.185h139.851V161.778z M306.185,161.028h138.351V52.935
				H306.185V161.028z"/>
			<g>
				
					<rect x="305.182" y="90.923" transform="matrix(0.7064 -0.7078 0.7078 0.7064 37.3396 272.6234)" style="fill:#C0DCD3;" width="84.27" height="0.751"/>
				
					<rect x="334.26" y="102.802" transform="matrix(0.7064 -0.7078 0.7078 0.7064 37.4664 296.6873)" style="fill:#C0DCD3;" width="84.27" height="0.751"/>
				
					<rect x="363.337" y="114.68" transform="matrix(0.7064 -0.7078 0.7078 0.7064 37.6163 320.7921)" style="fill:#C0DCD3;" width="84.27" height="0.751"/>
			</g>
		</g>
		<g>
			<g>
				<g>
					<path style="fill:#ACB545;" d="M300.366,197.057c-1.193,1.548-1.586,3.582-1.568,5.536c0.018,1.954,0.408,3.883,0.619,5.826
						c0.211,1.943,0.233,3.961-0.454,5.79c-0.844,2.245-2.693,3.998-4.774,5.19c-2.081,1.192-4.15,2.126-6.448,2.812
						c0.459-0.559,0.148-1.49,0.05-2.207c-0.405-2.951-1.435-5.858-1.201-8.828c0.268-3.399,2.204-6.504,4.729-8.795
						C293.843,200.09,297.255,198.452,300.366,197.057z"/>
					<path style="fill:#919625;" d="M282.364,228.954c-0.059,0-0.117-0.021-0.165-0.062c-0.103-0.091-0.114-0.249-0.023-0.353
						c4.129-4.72,8.81-10.07,10.674-16.524c0.342-1.182,0.591-2.413,0.831-3.604c0.243-1.198,0.493-2.436,0.839-3.634
						c0.649-2.248,2.43-5.358,4.576-6.952c0.111-0.081,0.268-0.059,0.351,0.052c0.082,0.111,0.059,0.267-0.052,0.35
						c-2.058,1.528-3.768,4.521-4.395,6.689c-0.34,1.179-0.589,2.407-0.829,3.595c-0.242,1.201-0.494,2.442-0.841,3.643
						c-1.895,6.561-6.614,11.956-10.777,16.715C282.503,228.925,282.434,228.954,282.364,228.954z"/>
				</g>
				<g>
					<path style="fill:#ACB545;" d="M263.698,198.716c-0.424,3.722-0.461,7.55,0.572,11.152c1.033,3.601,3.234,6.976,6.486,8.837
						c2.706,1.549,6.038,2.028,8.343,4.127c-1.369-3.493-0.716-7.449-1.309-11.154c-0.831-5.186-4.24-9.894-8.908-12.3
						c-1.949-1.005-4.239-1.751-5.364-3.634C263.607,196.919,263.831,197.545,263.698,198.716z"/>
					<path style="fill:#919625;" d="M283.492,228.525c-0.061,0-0.123-0.023-0.172-0.068c-3.469-3.271-5.764-7.574-7.982-11.735
						l-0.696-1.302c-3.219-5.985-6.792-11.866-10.62-17.479c-0.077-0.114-0.048-0.27,0.066-0.347
						c0.113-0.077,0.27-0.049,0.348,0.066c3.837,5.627,7.419,11.523,10.646,17.524l0.697,1.303c2.2,4.126,4.476,8.392,7.886,11.606
						c0.1,0.095,0.104,0.253,0.01,0.354C283.625,228.499,283.559,228.525,283.492,228.525z"/>
				</g>
				<g>
					<path style="fill:#ACB545;" d="M283.464,209.392c-0.421-1.462-1.949-2.247-3.244-3.047c-2.713-1.677-4.964-4.127-6.281-7.031
						c-1.317-2.904-1.673-6.258-0.862-9.342c0.758-2.883,2.463-5.41,4.14-7.874c0.52,1.679,1.788,2.966,3.133,4.096
						c1.345,1.131,2.824,2.115,4.025,3.397c2.385,2.545,3.486,6.098,3.602,9.584c0.064,1.934-0.157,3.898-0.865,5.699
						S285.113,208.38,283.464,209.392z"/>
					<path style="fill:#919625;" d="M281.673,226.032c-0.015,0-0.029-0.001-0.044-0.004c-0.136-0.024-0.227-0.154-0.202-0.29
						c0.925-5.226,1.882-10.63,1.973-16.02c0.102-6.035-0.932-11.293-3.072-15.629c-0.335-0.679-0.707-1.355-1.067-2.01
						c-0.525-0.955-1.068-1.941-1.513-2.962c-0.895-2.055-1.204-3.932-0.919-5.579c0.022-0.135,0.146-0.227,0.289-0.204
						c0.136,0.024,0.227,0.153,0.203,0.289c-0.268,1.549,0.03,3.331,0.886,5.295c0.435,0.999,0.972,1.976,1.491,2.92
						c0.363,0.659,0.738,1.341,1.079,2.029c2.175,4.408,3.226,9.744,3.123,15.859c-0.092,5.43-1.052,10.854-1.98,16.099
						C281.897,225.947,281.792,226.032,281.673,226.032z"/>
				</g>
			</g>
			<g>
				<polygon style="fill:#714A84;" points="291.132,250.775 274.754,250.775 271.703,227.493 294.184,227.493 				"/>
				<rect x="269.324" y="224.409" style="fill:#2F2433;" width="27.238" height="5.436"/>
			</g>
		</g>
		<g>
			<path style="fill:#1B1B28;" d="M368.514,68.967c-2.466,1.576-4.324,4.081-5.664,6.806c-1.34,2.725-2.203,5.684-3.06,8.625
				c-0.915,3.143-1.831,6.285-2.746,9.428c-0.979,3.363-1.951,7.057-0.713,10.32c1,2.637,3.324,4.493,5.825,5.438
				c2.502,0.944,5.195,1.095,7.846,1.181c7.366,0.24,14.766,0.052,22.055-1.111c1.893-0.302,3.949-0.774,5.145-2.379
				c1.19-1.597,1.174-3.847,0.996-5.884c-0.703-8.04-3.061-15.908-6.857-22.879c-0.942-1.73-1.987-3.455-3.4-4.786
				c-1.829-1.722-4.417-1.949-4.417-1.949s-1.348-1.588-1.965-2.064c-0.717-0.552-1.495-1.013-2.308-1.379
				c-1.593-0.717-3.327-1.072-5.053-1.043C372.212,67.325,370.226,67.873,368.514,68.967z"/>
			<g>
				<g>
					<g>
						<g>
							<path style="fill:#FFC48F;" d="M331.187,176.653c-5.838-0.248-10.763,4.297-11.003,10.135
								c-0.668,16.254-2.443,39.915-1.602,55.213c2.92,1.946,3.557,2.15,6.642,0.361c0,0,10.225-32.245,9.902-46.633l48.302,7.413
								l0.317-22.727C383.744,180.414,365.03,178.092,331.187,176.653z"/>
						</g>
						<g>
							<path d="M324.331,250.348c0,0-8.95,1.31-22.03-0.66c0.08-3.05,3.27-3.8,7.14-4.6c3.02-0.62,6.44-1.29,9.14-3.09l6.64,0.36
								c0.04,0.15,0.08,0.3,0.11,0.45C326.141,246.348,324.331,250.348,324.331,250.348z"/>
							<path style="fill:#FFC48F;" d="M325.331,242.808c-2.98,1.31-9.02,3.74-12.46,3.58c-2.49-0.12-3.26-0.74-3.43-1.3
								c3.02-0.62,6.44-1.29,9.14-3.09c2.253-0.326,4.468-0.224,6.64,0.36C325.261,242.508,325.301,242.658,325.331,242.808z"/>
						</g>
					</g>
					<g>
						<g>
							<path style="fill:#FFC48F;" d="M445.752,231.305c0,0-22.537-2.853-47.924,1.958l3.267-25.186
								c0.965-7.401,1.136-14.88,0.514-22.318l-0.119-1.417l-25.357,1.269c0,0,0.149,20.086,2.838,52.99
								c0.543,6.64,6.698,11.357,13.251,10.158c16.701-3.053,40.6-6.507,54.529-10.88
								C447.917,234.57,448.246,233.854,445.752,231.305z"/>
						</g>
						<g>
							<path d="M453.756,230.549c0,0,3.105,8.496,3.84,21.703c-3.002,0.543-4.386-2.428-5.957-6.054
								c-1.222-2.83-2.574-6.042-4.886-8.319l-1-6.574c0.139-0.07,0.277-0.139,0.418-0.199
								C449.471,229.592,453.756,230.549,453.756,230.549z"/>
							<path style="fill:#FFC48F;" d="M446.17,231.106c1.889,2.651,5.498,8.069,6.042,11.47c0.389,2.462-0.061,3.342-0.574,3.623
								c-1.222-2.83-2.574-6.042-4.886-8.319c-0.778-2.14-1.129-4.329-1-6.574C445.89,231.235,446.029,231.165,446.17,231.106z"/>
						</g>
					</g>
				</g>
				<path style="fill:#714A84;" d="M329.889,176.196l49.796,3.086l22.145,0.378c0,0,1.872,27.751-3.392,53.488
					c0,0-34.636,3.588-50.683-15.217C333.932,201.732,329.889,176.196,329.889,176.196z"/>
			</g>
			<g>
				<g>
					<path style="fill:#FFC48F;" d="M355.969,151.671c-10.394,2.104-27.334,4.794-39.297,5.676l-0.997-6.5
						c0,0,19.582-1.835,37.517-7.884c1.63-4.559,4.04-16.608,5.409-24.686c0.665-3.927,2.737-6.999,6.061-9.194l3.364-0.487
						c0,0,4.2,14.004-6.184,38.345C360.796,149.391,358.581,151.142,355.969,151.671z"/>
					<g>
						<g>
							<path style="fill:#FFC48F;" d="M319.259,155.13c-0.233-2.537-2.436-4.44-4.982-4.513c-3.195-0.092-7.432-0.084-7.573,0.6
								c-0.226,1.103,3.414,2.181,3.414,2.181s-3.529,4.948-2.155,5.809c1.374,0.861,2.355-0.963,2.355-0.963
								s-0.786,1.469,0.169,1.854s1.983-0.77,1.983-0.77s-0.552,1.299,0.247,1.756c0.798,0.457,1.73-0.956,1.73-0.956
								s-0.757,1.534-0.075,1.88c1.084,0.549,4.908-4.987,4.901-6.597C319.273,155.321,319.268,155.227,319.259,155.13z"/>
							<path style="fill:#B78B44;" d="M314.67,159.648c-0.024,0-0.049-0.007-0.07-0.022c-0.057-0.039-0.071-0.115-0.034-0.172
								c0.353-0.531,0.603-1.142,0.727-1.766c0.035-0.176,0.065-0.381,0.027-0.571c-0.037-0.183-0.146-0.337-0.281-0.401
								c-0.219-0.103-0.503-0.008-0.853,0.273c-0.609,0.491-1.101,1.003-1.464,1.521c-0.037,0.054-0.109,0.069-0.165,0.037
								c-0.056-0.032-0.078-0.102-0.051-0.161c0.304-0.663,0.616-1.345,0.779-2.055c0.053-0.228,0.095-0.515-0.047-0.708
								c-0.174-0.238-0.563-0.232-0.856-0.124c-0.812,0.3-1.321,1.117-1.772,1.927c-0.033,0.058-0.103,0.08-0.166,0.051
								c-0.06-0.03-0.085-0.102-0.058-0.163l0.597-1.326c0.232-0.514,0.46-1.102,0.24-1.585c-0.109-0.242-0.337-0.434-0.594-0.503
								c-0.069-0.018-0.142-0.028-0.216-0.03c-0.069-0.001-0.124-0.058-0.123-0.127c0.001-0.068,0.057-0.123,0.125-0.123
								c0.001,0,0.001,0,0.002,0c0.095,0.002,0.188,0.015,0.276,0.039c0.332,0.088,0.615,0.328,0.758,0.641
								c0.253,0.557,0.031,1.181-0.213,1.73c0.294-0.335,0.636-0.608,1.058-0.764c0.388-0.143,0.894-0.133,1.144,0.211
								c0.204,0.279,0.148,0.654,0.09,0.912c-0.099,0.431-0.249,0.847-0.418,1.252c0.27-0.287,0.575-0.569,0.918-0.845
								c0.429-0.348,0.808-0.451,1.114-0.306c0.21,0.099,0.367,0.315,0.42,0.579c0.047,0.232,0.014,0.468-0.025,0.668
								c-0.055,0.278-0.134,0.553-0.234,0.821c0.222-0.234,0.461-0.459,0.716-0.673c0.173-0.146,0.38-0.306,0.638-0.342
								c0.271-0.038,0.564,0.082,0.753,0.302c0.169,0.2,0.254,0.478,0.233,0.763c-0.005,0.065-0.06,0.116-0.125,0.116
								c-0.003,0-0.006,0-0.009-0.001c-0.069-0.005-0.121-0.065-0.116-0.134c0.017-0.22-0.047-0.432-0.175-0.583
								c-0.134-0.157-0.342-0.244-0.526-0.215c-0.192,0.027-0.365,0.161-0.512,0.286c-0.55,0.462-1.023,0.974-1.408,1.52
								C314.748,159.629,314.709,159.648,314.67,159.648z"/>
						</g>
						<path style="fill:#FFD263;" d="M321.8,164.215c-0.761-2.28-2.288-3.975-4.104-5.375c-0.373,0.566-0.777,1.116-1.178,1.601
							c0.713,0.552,1.39,1.147,1.964,1.85c1.454,1.782,2.05,4.062,1.82,6.272c-0.076-0.066-0.137-0.143-0.22-0.203l-13.368-9.687
							c-1.131-0.82-2.639-0.898-3.849-0.199l-10.595,6.119c-0.266,0.153-0.494,0.343-0.702,0.548
							c-0.058-0.774,0.032-1.56,0.304-2.319c0.691-1.923,2.366-3.357,4.079-4.372c1.833-1.085,3.836-1.845,5.725-2.823
							c1.926-0.997,3.417-1.789,5.532-0.708c0.492,0.252,0.975,0.531,1.462,0.798c0.372-0.676,0.764-1.299,1.049-1.731
							c-0.738-0.413-1.482-0.812-2.246-1.154c-1.663-0.743-3.301-0.613-4.943,0.115c-1.883,0.835-3.731,1.817-5.585,2.72
							c-1.802,0.877-3.555,1.899-4.951,3.358c-2.687,2.809-3.085,6.657-1.256,9.91c0.09,0.232,0.204,0.458,0.347,0.674l6.418,9.728
							l-19.877-2.1l-0.929,2.505l23.564,7.4c1.861,0.555,3.876,0.145,5.372-1.092l14.627-12.094
							c0.681-0.563,1.085-1.313,1.225-2.101C322.501,169.452,322.64,166.73,321.8,164.215z"/>
					</g>
				</g>
				<g>
					<path style="fill:#ACB545;" d="M401.83,179.661c-0.011-0.165-0.023-0.338-0.038-0.518c0.022-0.009,0.036-0.016,0.036-0.016
						c-0.013-0.018-0.028-0.042-0.042-0.063c-0.115-1.341-0.355-3.096-0.831-5.279c-0.741-3.426-5.401-12.328-7.147-25.572
						c-0.421-3.171-0.257-7.6,0.07-11.644c0.442-5.476,1.176-10.251,1.184-10.301c0-0.001,0.001-0.001,0.001-0.002
						c-0.712-9.672-1.081-16.546-0.959-16.593c-2.094-1.879-6.625-2.994-10.403-2.986h-0.574c-3.108-0.411-9.234-0.138-11.014,0.221
						c-0.777,0.114-1.56,0.252-2.323,0.418l-2.342,0.603c-1.796,0.541-3.206,1.173-3.651,1.744
						c-0.844,1.217-1.34,5.002-1.839,11.396c-1.912,3.778-4.131,9.934-1.041,15.327c0,0.002,0,0.004,0,0.006
						c0.001,0,0.003,0.001,0.004,0.001c0.395,0.688,0.868,1.364,1.448,2.021c0,0,0.078,0.451,0.187,1.229
						c0.343,2.415,0.99,7.942,0.546,12.451c-0.514,5.225-5.418,16.279-6.865,25.912c0,0,4.77,6.684,19.029,7.645
						C391.924,186.783,401.83,179.661,401.83,179.661z"/>
				</g>
				<g>
					<path style="fill:#FFC48F;" d="M394.104,109.673c0,0,18.85,23.164,19.645,78.735h-6.529c0,0-3.226-30.174-12.781-52.687
						c-3.141-7.402-3.59-15.666-1.184-23.338L394.104,109.673z"/>
					<g>
						<path style="fill:#FFC48F;" d="M403.947,193.445c-0.061,0.485-0.23,1.206,0.239,1.574c0.477,0.375,1.079,0.081,1.343-0.367
							c0.36-0.611,0.574-1.347,0.846-2c0.092-0.219,0.183-0.439,0.274-0.659c0.129,1.464,0.027,2.94-0.318,4.365
							c-0.223,0.923-0.541,1.822-0.957,2.676c-0.318,0.653-0.738,1.444-0.173,2.112c0.288,0.34,0.682,0.415,1.055,0.325
							c0.335,0.27,0.822,0.354,1.27,0.174c0.124-0.05,0.239-0.118,0.35-0.194c0.072,0.161,0.233,0.282,0.457,0.222
							c0.667-0.18,1.19-0.582,1.62-1.082c0.129,0.049,0.279,0.044,0.408-0.067c2.46-2.117,3.852-5.265,3.863-8.472
							c0.005-1.499-0.23-3.319-1.093-4.62c-1.065-1.607-3.091-1.644-4.83-1.533c-0.048,0.003-0.088,0.018-0.127,0.033
							c-0.14-0.159-0.384-0.227-0.57-0.035C405.605,187.964,404.306,190.611,403.947,193.445z"/>
						<g>
							<path style="fill:#C1877C;" d="M406.348,201.332c0.068,0.018,0.143-0.009,0.18-0.073c1.305-2.174,2.082-4.66,2.249-7.189
								c0.005-0.088-0.067-0.161-0.151-0.172c-0.089-0.006-0.166,0.061-0.171,0.151c-0.163,2.478-0.925,4.913-2.203,7.044
								c-0.046,0.077-0.022,0.176,0.055,0.221C406.32,201.322,406.334,201.328,406.348,201.332z"/>
							<path style="fill:#C1877C;" d="M408.073,201.115c0.068,0.018,0.142-0.009,0.18-0.073c1.225-2.024,1.89-4.344,1.924-6.709
								c0.001-0.089-0.067-0.16-0.16-0.163c-0.089-0.001-0.162,0.07-0.163,0.159c-0.033,2.307-0.682,4.571-1.877,6.547
								c-0.046,0.076-0.021,0.175,0.055,0.221C408.045,201.106,408.059,201.112,408.073,201.115z"/>
							<path style="fill:#C1877C;" d="M410.221,200.194c0.072,0.014,0.147-0.023,0.178-0.092c0.788-1.746,1.246-3.6,1.364-5.512
								c0.006-0.088-0.057-0.165-0.151-0.171c-0.089-0.005-0.165,0.063-0.171,0.152c-0.114,1.873-0.564,3.689-1.335,5.4
								c-0.037,0.081-0.001,0.176,0.081,0.213C410.197,200.188,410.209,200.191,410.221,200.194z"/>
						</g>
					</g>
				</g>
			</g>
			<g>
				<path style="fill:#FFC48F;" d="M384.092,76.019c-4.02-7.37-18.164-4.855-19.264,1.005c-2.261,12.054-0.544,17.002,2.806,19.85
					c3.877,3.295,6.407,2.875,6.407,9.799c1.466,3.685,7.091,4.188,8.906,0c-0.112-9.171,3.036-16.122,3.036-16.122
					S385.749,79.058,384.092,76.019z"/>
				<path style="fill:#1B1B28;" d="M382.584,77.652c-2.429,3.501-7.315,2.694-7.315,2.694l2.82-2.429c0,0-6.98,4.132-14.186,2.7
					c0,0-1.058-2.644,2.181-7.056c2.072-2.822,8.096-3.518,13.233-2.568c5.137,0.949,7.37,3.183,7.538,6.868
					c0.168,3.685,0.542,8.287,0.542,8.287l-1.994,1.521C382.277,85.583,382.584,77.652,382.584,77.652z"/>
				<g>
					<g>
						<path d="M375.452,87.382c0,0.501-0.406,0.907-0.907,0.907c-0.501,0-0.907-0.406-0.907-0.907s0.406-0.907,0.907-0.907
							C375.046,86.475,375.452,86.881,375.452,87.382z"/>
						<circle style="fill:#FFFFFF;" cx="374.213" cy="87.134" r="0.332"/>
					</g>
					<g>
						<circle cx="367.531" cy="87.382" r="0.907"/>
						<circle style="fill:#FFFFFF;" cx="367.199" cy="87.134" r="0.332"/>
					</g>
					<path style="fill:#1B1B28;" d="M369.045,83.831c-1.139-0.793-2.619-0.747-3.692,0.181c-0.201,0.174-0.236,0.523-0.083,0.75
						c0.156,0.231,0.452,0.27,0.654,0.096c0.441-0.381,1.002-0.553,1.55-0.513c0.277,0.02,0.551,0.095,0.806,0.221
						c0.226,0.112,0.445,0.307,0.698,0.162c0.06-0.035,0.112-0.086,0.153-0.147C369.271,84.372,369.261,83.982,369.045,83.831z"/>
					<path style="fill:#1B1B28;" d="M372.58,83.831c1.306-0.793,3.003-0.747,4.233,0.181c0.23,0.174,0.271,0.523,0.096,0.75
						c-0.179,0.231-0.518,0.27-0.75,0.096c-0.505-0.381-1.149-0.546-1.776-0.504c-0.317,0.021-0.631,0.094-0.924,0.217
						c-0.259,0.109-0.513,0.301-0.801,0.157c-0.069-0.035-0.129-0.086-0.176-0.147C372.321,84.372,372.332,83.982,372.58,83.831z"/>
					<path style="fill:#B78B44;" d="M370.684,92.537c-0.495,0-1.01-0.108-1.506-0.37c-0.232-0.122-0.321-0.408-0.199-0.64
						c0.122-0.231,0.408-0.321,0.639-0.199c1.2,0.629,2.538-0.018,2.92-0.542c0.154-0.21,0.451-0.258,0.662-0.103
						c0.211,0.155,0.257,0.451,0.103,0.662C372.854,91.962,371.823,92.537,370.684,92.537z"/>
					<path style="fill:#B78B44;" d="M369.565,89.841c-0.051,0-0.098-0.034-0.114-0.086c-0.224-0.773,0.038-1.036,0.298-1.12
						c0.264-0.084,0.58-0.016,0.939,0.205c0.056,0.034,0.073,0.107,0.038,0.163c-0.035,0.055-0.109,0.072-0.163,0.038
						c-0.297-0.183-0.546-0.245-0.741-0.181c-0.233,0.075-0.282,0.354-0.144,0.829c0.018,0.063-0.018,0.128-0.081,0.147
						C369.587,89.84,369.576,89.841,369.565,89.841z"/>
				</g>
				<g>
					<path style="fill:#FFC48F;" d="M389.085,90.816c-1.212,1.446-3.126,1.838-4.273,0.875c-1.147-0.962-1.095-2.914,0.117-4.36
						c1.212-1.446,3.126-1.838,4.273-0.875C390.35,87.418,390.297,89.37,389.085,90.816z"/>
					<path style="fill:#B78B44;" d="M388.411,87.163c-0.515-0.272-1.203-0.26-1.838,0.036c-0.316,0.147-0.546,0.326-0.703,0.547
						c-0.207,0.293-0.265,0.66-0.15,0.958c0.102,0.268,0.316,0.442,0.505,0.595c0.137,0.111,0.266,0.216,0.339,0.341
						c0.112,0.192,0.084,0.462-0.066,0.627c-0.15,0.165-0.415,0.218-0.618,0.124c-0.119-0.055-0.26-0.003-0.315,0.116
						c-0.055,0.118-0.003,0.26,0.116,0.315c0.13,0.06,0.271,0.089,0.413,0.089c0.281,0,0.563-0.114,0.755-0.325
						c0.288-0.317,0.34-0.815,0.124-1.185c-0.116-0.2-0.293-0.343-0.449-0.47c-0.156-0.127-0.304-0.248-0.361-0.398
						c-0.058-0.15-0.021-0.352,0.094-0.515c0.046-0.065,0.11-0.124,0.18-0.182c0.235-0.002,0.53,0.071,0.679,0.233
						c0.168,0.184,0.247,0.449,0.206,0.694c-0.021,0.129,0.066,0.251,0.195,0.272c0.013,0.002,0.026,0.003,0.039,0.003
						c0.114,0,0.214-0.082,0.233-0.199c0.065-0.39-0.056-0.798-0.324-1.091c-0.1-0.109-0.224-0.182-0.355-0.242
						c0.392-0.106,0.779-0.085,1.079,0.074c0.371,0.196,0.651,0.701,0.46,1.113c-0.055,0.119-0.003,0.26,0.116,0.315
						c0.119,0.055,0.259,0.003,0.315-0.116C389.356,88.295,389.05,87.502,388.411,87.163z"/>
				</g>
			</g>
		</g>
	</g>
	<g>
		<g>
			<g>
				<g>
					<path style="fill:#1B1B28;" d="M226.886,322.516c-1.907,0.067-3.802,0.462-5.579,1.194c-5.745,2.366-8.574,8.526-9.962,14.532
						c-0.664,2.876-1.035,6.03-2.759,8.232c-1.886,2.408-5.157,3.331-6.266,6.322c-0.878,2.368,0.067,5.261,1.762,6.923
						c1.695,1.662,3.97,2.295,6.181,2.494c2.21,0.2,4.44,0.02,6.644,0.303c3.673,0.472,7.212,2.263,10.014,5.067
						c1.999,2,3.625,4.493,5.756,6.299c2.132,1.806,5.058,2.837,7.409,1.448c2.561-1.513,3.486-5.311,3.29-8.645
						c-0.196-3.334-1.226-6.542-1.432-9.875c-0.235-3.811,0.616-7.583,1.277-11.325c1.342-7.593,0.493-14.895-5.871-19.709
						C234.333,323.494,230.588,322.386,226.886,322.516z"/>
					<g>
						<path style="fill:#9E6C52;" d="M238.086,330.936c-2.17-8.11-16.508-8.999-18.958-3.564
							c-5.039,11.181-4.537,16.395-1.952,19.952c2.745,3.778,5.125,4.247,4.237,9.5c-0.463,2.738,1.487,5.455,4.26,5.598
							c1.459,0.075,2.975-0.509,4.075-1.965c2.053-8.939,6.75-14.952,6.75-14.952S238.98,334.28,238.086,330.936z"/>
						<path style="fill:#1B1B28;" d="M217.382,330.647c0,0-0.404-2.819,3.783-6.343c2.678-2.254,8.697-1.51,13.466,0.623
							c4.768,2.133,6.412,4.83,5.707,8.451c-0.706,3.621-1.426,8.181-1.426,8.181l-2.296,1.008
							c-1.069-3.022-1.561-6.137-1.521-9.342c-3.594-0.012-7.153-1.72-9.492-4.448C223.329,330.229,220.08,330.647,217.382,330.647z
							"/>
						<g>
							<g>
								<path d="M227.011,339.942c-0.118,0.487-0.608,0.786-1.095,0.668c-0.487-0.118-0.786-0.608-0.668-1.095
									c0.118-0.487,0.608-0.786,1.095-0.668C226.83,338.966,227.129,339.456,227.011,339.942z"/>
								<path style="fill:#FFFFFF;" d="M226.189,339.488c-0.043,0.178-0.223,0.288-0.401,0.245
									c-0.178-0.043-0.288-0.223-0.245-0.401c0.043-0.178,0.223-0.288,0.401-0.244C226.122,339.13,226.232,339.31,226.189,339.488
									z"/>
							</g>
							<g>
								<path d="M220.195,338.289c-0.118,0.487-0.608,0.786-1.095,0.667c-0.487-0.118-0.786-0.608-0.668-1.095
									c0.118-0.487,0.608-0.785,1.095-0.667C220.014,337.312,220.313,337.802,220.195,338.289z"/>
								<path style="fill:#FFFFFF;" d="M219.372,337.835c-0.043,0.178-0.223,0.288-0.401,0.244
									c-0.178-0.043-0.288-0.223-0.244-0.401c0.043-0.178,0.223-0.288,0.401-0.244
									C219.306,337.477,219.415,337.656,219.372,337.835z"/>
							</g>
							<path style="fill:#1B1B28;" d="M221.622,334.982c-0.92-1.039-2.369-1.344-3.631-0.694c-0.236,0.121-0.353,0.453-0.258,0.709
								c0.097,0.262,0.376,0.369,0.613,0.247c0.518-0.266,1.104-0.301,1.627-0.133c0.264,0.085,0.513,0.222,0.731,0.405
								c0.193,0.162,0.36,0.403,0.64,0.322c0.067-0.019,0.13-0.057,0.184-0.107C221.714,335.56,221.796,335.179,221.622,334.982z"/>
							<path style="fill:#1B1B28;" d="M225.057,335.815c1.456-0.463,3.094-0.018,4.071,1.174c0.183,0.223,0.14,0.572-0.084,0.751
								c-0.228,0.182-0.567,0.14-0.751-0.084c-0.401-0.489-0.988-0.801-1.607-0.908c-0.313-0.054-0.636-0.057-0.949-0.007
								c-0.277,0.045-0.57,0.172-0.816-0.037c-0.059-0.05-0.105-0.114-0.136-0.184C224.678,336.279,224.78,335.903,225.057,335.815z
								"/>
							<path style="fill:#774B37;" d="M221.162,343.829c-0.481-0.117-0.956-0.343-1.377-0.714c-0.197-0.173-0.216-0.472-0.043-0.668
								c0.173-0.196,0.472-0.216,0.668-0.043c1.018,0.894,2.47,0.581,2.965,0.162c0.199-0.168,0.499-0.144,0.668,0.056
								c0.169,0.2,0.144,0.499-0.056,0.668C223.407,343.781,222.27,344.098,221.162,343.829z"/>
							<path style="fill:#774B37;" d="M220.71,340.945c-0.05-0.012-0.088-0.056-0.09-0.11c-0.036-0.804,0.282-0.998,0.554-1.018
								c0.276-0.02,0.567,0.121,0.865,0.421c0.046,0.046,0.045,0.121-0.001,0.168c-0.047,0.045-0.123,0.044-0.168-0.001
								c-0.245-0.248-0.473-0.367-0.678-0.351c-0.244,0.018-0.357,0.278-0.335,0.771c0.003,0.065-0.048,0.12-0.113,0.124
								C220.732,340.948,220.721,340.947,220.71,340.945z"/>
						</g>
						<g>
							<path style="fill:#9E6C52;" d="M239.45,346.493c-1.519,1.119-3.471,1.049-4.359-0.156c-0.888-1.206-0.377-3.091,1.142-4.21
								c1.519-1.119,3.471-1.049,4.359,0.157C241.48,343.489,240.969,345.374,239.45,346.493z"/>
							<path style="fill:#774B37;" d="M239.656,342.785c-0.437-0.386-1.108-0.536-1.794-0.399c-0.342,0.068-0.607,0.188-0.812,0.365
								c-0.27,0.235-0.413,0.579-0.372,0.896c0.036,0.284,0.203,0.504,0.35,0.698c0.106,0.14,0.207,0.273,0.249,0.412
								c0.063,0.214-0.028,0.469-0.212,0.594c-0.184,0.125-0.455,0.114-0.63-0.025c-0.103-0.082-0.251-0.064-0.333,0.038
								c-0.081,0.102-0.064,0.251,0.038,0.333c0.112,0.089,0.243,0.15,0.38,0.184c0.273,0.066,0.574,0.022,0.81-0.138
								c0.354-0.24,0.523-0.712,0.4-1.122c-0.066-0.221-0.204-0.403-0.325-0.563c-0.122-0.161-0.237-0.312-0.257-0.472
								c-0.021-0.16,0.063-0.347,0.213-0.478c0.06-0.053,0.136-0.095,0.217-0.134c0.229,0.053,0.498,0.193,0.605,0.386
								c0.12,0.218,0.134,0.495,0.037,0.723c-0.051,0.12,0.005,0.259,0.126,0.31c0.012,0.005,0.024,0.009,0.037,0.012
								c0.111,0.027,0.228-0.03,0.273-0.138c0.155-0.364,0.133-0.788-0.058-1.136c-0.071-0.129-0.175-0.23-0.287-0.319
								c0.406-0.01,0.777,0.101,1.031,0.326c0.314,0.278,0.467,0.835,0.185,1.19c-0.081,0.103-0.064,0.252,0.038,0.333
								c0.103,0.081,0.251,0.064,0.333-0.038C240.309,344.107,240.198,343.264,239.656,342.785z"/>
						</g>
					</g>
				</g>
				<g>
					<path style="fill:#9E6C52;" d="M176.459,374.701c-8.429-6.436-21.61-17.411-30.154-25.832l4.234-5.031
						c0,0,14.278,13.526,30.642,23.038c4.505-1.776,15.158-7.898,22.138-12.189c3.393-2.086,7.07-2.55,10.91-1.494l2.582,2.21
						c0,0-7.771,12.384-32.926,20.602C181.353,376.832,178.577,376.318,176.459,374.701z"/>
					<g>
						<g>
							<path style="fill:#9E6C52;" d="M147.381,349.118c2.428-0.772,3.814-3.331,3.34-5.834c-0.595-3.14-1.511-7.277-2.21-7.268
								c-1.126,0.016-1.399,3.802-1.399,3.802s-5.589-2.386-6.136-0.859c-0.547,1.527,1.446,2.093,1.446,2.093
								s-1.603-0.452-1.774,0.563c-0.171,1.015,1.177,1.772,1.177,1.772s-1.387-0.26-1.662,0.617
								c-0.275,0.878,1.305,1.485,1.305,1.485s-1.661-0.41-1.852,0.33c-0.304,1.176,5.923,3.725,7.494,3.373
								C147.197,349.172,147.288,349.147,147.381,349.118z"/>
							<path style="fill:#774B37;" d="M143.586,348.281c-0.045-0.014-0.08-0.052-0.088-0.101c-0.01-0.068,0.038-0.132,0.106-0.142
								c0.218-0.032,0.412-0.14,0.531-0.296c0.125-0.164,0.164-0.384,0.098-0.562c-0.067-0.18-0.236-0.321-0.389-0.438
								c-0.567-0.436-1.168-0.789-1.787-1.049c-0.063-0.026-0.093-0.099-0.068-0.161c0.026-0.064,0.098-0.091,0.161-0.071
								c0.593,0.229,1.245,0.345,1.881,0.331c0.189-0.004,0.388-0.019,0.563-0.096c0.174-0.077,0.298-0.212,0.332-0.361
								c0.052-0.231-0.099-0.491-0.45-0.774c-0.61-0.49-1.216-0.86-1.8-1.104c-0.06-0.024-0.091-0.091-0.072-0.152
								c0.019-0.061,0.082-0.098,0.146-0.085c0.707,0.155,1.438,0.315,2.175,0.321c0.215,0.003,0.52-0.014,0.681-0.197
								c0.196-0.223,0.111-0.594-0.061-0.864c-0.458-0.714-1.34-1.038-2.211-1.303c-0.017-0.005-0.034-0.01-0.051-0.016c0,0,0,0,0,0
								c-0.064-0.019-0.102-0.086-0.085-0.15c0.017-0.065,0.081-0.105,0.146-0.091l1.423,0.299c0.577,0.12,1.176,0.212,1.6-0.106
								c0.213-0.16,0.352-0.423,0.364-0.688c0.003-0.073-0.002-0.147-0.017-0.217c-0.014-0.067,0.029-0.133,0.097-0.147
								c0.067-0.015,0.134,0.028,0.148,0.097c0.019,0.091,0.027,0.185,0.022,0.279c-0.014,0.342-0.188,0.669-0.464,0.877
								c-0.489,0.366-1.146,0.283-1.735,0.163c0.39,0.216,0.731,0.492,0.973,0.869c0.223,0.348,0.321,0.843,0.038,1.163
								c-0.23,0.26-0.607,0.285-0.871,0.282c-0.444-0.004-0.882-0.062-1.313-0.14c0.338,0.202,0.68,0.44,1.022,0.715
								c0.431,0.347,0.612,0.692,0.537,1.025c-0.051,0.225-0.228,0.425-0.474,0.534c-0.215,0.095-0.453,0.113-0.659,0.118
								c-0.283,0.006-0.569-0.013-0.852-0.054c0.277,0.167,0.547,0.352,0.811,0.555c0.181,0.139,0.381,0.308,0.471,0.549
								c0.096,0.26,0.045,0.567-0.134,0.801c-0.158,0.207-0.411,0.35-0.694,0.391C143.622,348.288,143.603,348.286,143.586,348.281z
								"/>
						</g>
						<g>
							<path style="fill:#C0DCD3;" d="M144.975,349.967c-0.067,0.219-1.723-0.09-3.699-0.69c-1.976-0.601-3.525-1.265-3.458-1.485
								c0.067-0.219,1.723,0.09,3.699,0.691C143.494,349.083,145.042,349.748,144.975,349.967z"/>
							<g>
								<path style="fill:#C0DCD3;" d="M144.798,338.977l1.14-3.753l-0.718-0.218l-1.144,3.765
									C144.32,338.836,144.562,338.904,144.798,338.977z"/>
								<path style="fill:#C0DCD3;" d="M141.427,347.489l-0.437,1.437l0.718,0.218l0.4-1.316
									C141.872,347.717,141.643,347.604,141.427,347.489z"/>
							</g>
							<g>
								<path style="fill:#C0DCD3;" d="M144.058,326.398l7.637,2.321c0,0-3.2,11.119-7.183,9.909
									C140.53,337.418,144.058,326.398,144.058,326.398z"/>
								<path style="fill:#FF792D;" d="M144.568,327.997l5.813,1.767c0,0-2.436,8.463-5.467,7.542
									C141.883,336.385,144.568,327.997,144.568,327.997z"/>
							</g>
						</g>
					</g>
				</g>
				<g>
					<g>
						<g>
							<g>
								<path style="fill:#9E6C52;" d="M207.21,432.4c0.078-0.146,0.158-0.299,0.241-0.46c0.023,0.004,0.039,0.006,0.039,0.006
									c-0.002-0.022-0.002-0.05-0.003-0.076c0.611-1.199,1.335-2.816,2.084-4.921c1.182-3.299,1.929-13.32,7.445-25.486
									c1.318-2.914,3.798-6.588,6.213-9.848c3.269-4.416,6.415-8.081,6.449-8.12c0.001,0,0.001-0.001,0.002-0.001
									c2.501-4.765,4.636-8.743,6.063-11.336c1.397-2.538,0.961-5.67-1.038-7.768c-1.274-1.336-2.804-2.581-4.324-3.522
									l-0.488-0.304c-2.421-1.992-7.767-4.997-9.467-5.632c-0.72-0.314-1.457-0.61-2.193-0.872l-2.307-0.726
									c-1.81-0.49-3.342-0.699-4.021-0.449c-1.359,0.587-3.781,3.538-7.584,8.703c-3.62,2.197-8.756,6.25-8.983,12.462
									c-0.001,0.001-0.002,0.003-0.003,0.005c0.001,0.001,0.002,0.002,0.003,0.003c-0.029,0.793,0.016,1.617,0.161,2.481
									c0,0-0.172,0.424-0.491,1.142c-0.985,2.231-3.357,7.266-6.117,10.859c-3.197,4.164-13.202,10.957-19.521,18.371
									c0,0,0.518,8.195,12.115,16.546C195.036,433.212,207.21,432.4,207.21,432.4z"/>
							</g>
						</g>
						<g>
							<g>
								<path style="fill:#9E6C52;" d="M229.68,383.493c-0.001,0-0.001,0.001-0.002,0.001c-0.033,0.039-3.18,3.704-6.449,8.12
									c-2.415,3.26-4.894,6.934-6.213,9.848c-5.516,12.166-6.264,22.187-7.445,25.486c-0.749,2.105-1.473,3.722-2.084,4.921
									c0.001,0.025,0.001,0.054,0.003,0.076c0,0-0.016-0.002-0.039-0.006c-0.083,0.161-0.163,0.314-0.241,0.46
									c0,0-12.174,0.812-25.724-8.944c-11.598-8.35-12.115-16.546-12.115-16.546c6.319-7.414,16.324-14.207,19.521-18.371
									c2.76-3.593,5.132-8.628,6.117-10.859c0.319-0.718,0.491-1.142,0.491-1.142c-0.145-0.863-0.19-1.688-0.161-2.481
									c-0.001-0.001-0.002-0.002-0.003-0.003c0.001-0.002,0.002-0.003,0.003-0.005c0.227-6.212,5.364-10.265,8.984-12.462
									C215.352,361.908,222.75,372.069,229.68,383.493z"/>
							</g>
						</g>
					</g>
				</g>
			</g>
			<g>
				<g>
					<path style="fill:#C0DCD3;" d="M226.197,376.25c-0.603-2.075-2.166-3.851-4.148-4.713c-1.982-0.862-4.346-0.795-6.275,0.178
						c-0.619-2.267-2.795-3.706-5.141-3.84c-2.346-0.134-4.697,1.361-5.57,3.543c-0.667-0.793-1.948-1.138-2.975-1.003
						c-1.028,0.135-1.966,0.821-2.406,1.759c-1.174-2.941-4.305-4.899-7.471-4.856s-6.2,2.188-7.294,5.159
						c-0.947-1.064-2.597-1.433-4.02-1.379c-1.424,0.054-2.808,0.771-3.673,1.904c-0.665-1.072-1.955-1.643-3.206-1.804
						c-1.251-0.161-2.565,0.267-3.481,1.134c-1.513-2.341-4.538-3.636-7.322-3.774c-2.784-0.137-5.601,1.136-7.337,3.317
						c-2.185-0.951-4.604-0.759-6.7,0.376c-2.096,1.135-3.621,3.269-4.018,5.619C172.079,375.441,199.207,374.802,226.197,376.25z"
						/>
					<path style="fill:#C0DCD3;" d="M188.593,369.702c0.666-2.289,2.429-4.231,4.642-5.116c2.213-0.885,4.638-0.796,6.698,0.402
						c1.977-1.965,4.923-2.904,7.672-2.445c2.749,0.459,5.604,2.096,6.836,4.596c7.278-2.365,11.791,4.364,11.757,9.111
						L188.593,369.702z"/>
					<path style="fill:#C0DCD3;" d="M50.655,377.336c-0.155-3.51,1.993-7.013,5.193-8.465c3.199-1.452,7.25-0.764,9.791,1.664
						c0.635-3.105,2.488-6.61,5.131-8.36c2.643-1.75,6.113-2.275,9.089-1.182c2.976,1.092,5.33,3.848,5.742,6.991
						c1.243-0.971,3.381-1.401,4.827-0.771c1.446,0.629,2.496,2.088,2.633,3.659c0.899-1.144,2.566-1.569,4.013-1.419
						c1.447,0.15,2.788,1.084,3.432,2.388c1.434-1.482,3.673-2.111,5.71-1.794c2.037,0.318,3.885,1.673,4.801,3.52
						c2.088-1.901,5.227-2.199,7.854-1.165c2.628,1.034,4.564,3.639,4.797,6.454C99.48,378.642,74.843,377.549,50.655,377.336z"/>
				</g>
				<g>
					<path style="fill:#FFF5CC;" d="M192.768,449.479H88.266c-20.536,0-37.184-16.648-37.184-37.185v-32.826h178.872v32.826
						C229.953,432.831,213.305,449.479,192.768,449.479z"/>
					<path style="fill:#CEBE7C;" d="M230.796,388.327H50.238c-3.468,0-6.28-2.812-6.28-6.28v-0.966c0-3.468,2.812-6.28,6.28-6.28
						h180.557c3.468,0,6.28,2.812,6.28,6.28v0.966C237.076,385.516,234.264,388.327,230.796,388.327z"/>
				</g>
			</g>
			<g>
				<path style="fill:#9E6C52;" d="M236.525,368.379l-1.043,2.372c-6.128,5.27-9.948,3.055-9.948,3.055s-2.4,23.107-3.052,25.921
					c-18.638-12.063-25.221-19.523-25.221-19.523l-5.128,4.041c7.144,8.803,19.857,19.17,28.904,26.555
					c3.29,2.686,8.268,1.225,9.566-2.819C238.031,384.839,236.525,368.379,236.525,368.379z"/>
			</g>
			<path style="fill:#9E6C52;" d="M198.671,383.119c0,0,0.303-3.444-4.755-4.176c-5.057-0.732-6.561-0.906-7.583,0.416
				c-1.022,1.322-3.358,5.277-2.304,5.827c1.054,0.55,1.789-1.198,1.789-1.198s-0.252,1.359,0.376,1.832
				c0.628,0.473,4.607,2.914,5.322,2.833c0.715-0.081,0.908-1.608,0.908-1.608S198.469,386.96,198.671,383.119z"/>
			<g>
				<g>
					<g>
						<path style="fill:#ACB545;" d="M120.833,426.722h-10.897c-0.938-0.443-1.227-1.595-1.17-2.403
							c0.057-0.808,0.338-1.596,0.013-2.441c-0.689-1.792-3.531-2.647-4.613-4.369c-0.78-1.242-0.411-2.531-0.105-3.695
							c0.306-1.164,0.448-2.589-0.614-3.705c-1.129-1.187-3.121-1.464-4.26-2.645c-1-1.037-0.976-2.375-0.756-3.485
							c0.22-1.111,0.555-2.277-0.032-3.469c-0.49-0.995-1.531-1.799-2.571-2.47c-1.041-0.67-2.154-1.283-3.011-2.134
							c-0.857-0.851-1.407-2.039-0.959-2.846c1.21,1.408,3.171,2.417,4.989,2.951c1.818,0.534,3.662,0.813,5.464,1.45
							c1.802,0.638,3.644,1.739,4.539,3.266c0.687,1.172,0.762,2.494,1.711,3.564c0.707,0.797,1.762,1.292,2.675,1.915
							c2.009,1.371,3.383,3.498,3.52,5.451c0.079,1.123-0.212,2.226,0.317,3.356c0.861,1.84,3.533,2.989,4.391,4.829
							c0.553,1.185,0.201,2.328,0.061,3.453C119.386,424.419,119.626,425.888,120.833,426.722z"/>
						<path style="fill:#919625;" d="M114.956,426.749c-0.089,0-0.175-0.048-0.22-0.132c-0.489-0.914-0.439-1.949-0.391-2.951
							c0.04-0.853,0.079-1.659-0.186-2.398c-0.332-0.926-1.079-1.591-1.87-2.294c-0.554-0.493-1.126-1.003-1.56-1.619
							c-0.942-1.342-1.121-3.005-1.295-4.614l-0.055-0.5c-0.176-1.551-0.547-3.467-1.871-4.528
							c-0.416-0.334-0.902-0.568-1.416-0.816c-0.669-0.322-1.361-0.655-1.881-1.228c-0.701-0.769-0.934-1.782-1.158-2.762
							c-0.137-0.598-0.279-1.216-0.526-1.76c-0.832-1.83-2.843-2.844-4.502-3.523c-0.248-0.102-0.5-0.201-0.752-0.302
							c-1.649-0.654-3.354-1.332-4.595-2.637c-0.095-0.1-0.091-0.258,0.009-0.352c0.1-0.097,0.258-0.092,0.354,0.009
							c1.166,1.225,2.819,1.881,4.417,2.516c0.254,0.101,0.506,0.201,0.757,0.304c1.744,0.714,3.862,1.789,4.767,3.778
							c0.268,0.59,0.415,1.233,0.558,1.855c0.22,0.959,0.428,1.864,1.04,2.537c0.456,0.499,1.074,0.798,1.729,1.113
							c0.517,0.249,1.052,0.507,1.512,0.876c1.466,1.177,1.868,3.217,2.055,4.862l0.055,0.503c0.166,1.546,0.338,3.145,1.206,4.381
							c0.399,0.568,0.95,1.059,1.483,1.532c0.803,0.715,1.633,1.453,2.008,2.5c0.298,0.831,0.255,1.726,0.214,2.591
							c-0.046,0.977-0.09,1.899,0.333,2.69c0.065,0.122,0.02,0.273-0.103,0.339C115.037,426.739,114.997,426.749,114.956,426.749z"
							/>
					</g>
					<g>
						<path style="fill:#ACB545;" d="M124.956,426.722h10.013c0.82,0,0.907-1.287,0.901-2.107c-0.006-0.82-0.148-1.684,0.199-2.427
							c0.588-1.259,2.271-1.58,3.14-2.664c1.037-1.294,0.761-3.468,2.135-4.397c1.326-0.897,3.356,0.009,4.615-0.981
							c0.862-0.677,0.951-1.921,1.362-2.938c0.788-1.949,3.085-3.153,5.136-2.693c-1.686-2.219-4.948-3.088-7.445-1.85
							c-1.27,0.63-2.321,1.705-3.685,2.094c-1.289,0.368-2.659,0.069-3.988-0.099c-1.33-0.168-2.807-0.163-3.85,0.679
							c-1.713,1.382-1.449,4.321-3.191,5.667c-0.994,0.768-2.368,0.788-3.511,1.308c-1.756,0.799-2.782,2.727-3.026,4.641
							C123.518,422.869,124.549,424.836,124.956,426.722z"/>
						<path style="fill:#919625;" d="M130.604,428.164c-0.073,0-0.145-0.031-0.194-0.093c-2.003-2.478-1.786-6.471,0.474-8.718
							c0.382-0.379,0.815-0.716,1.235-1.042c0.806-0.627,1.568-1.22,1.976-2.078c0.148-0.311,0.242-0.646,0.341-1
							c0.116-0.412,0.235-0.839,0.449-1.232c0.662-1.22,2.065-1.946,4.29-2.221l0.586-0.068c1.375-0.155,2.797-0.315,3.841-1.141
							c0.413-0.326,0.744-0.737,1.094-1.172c0.292-0.362,0.593-0.736,0.949-1.06c1.249-1.138,3.088-1.52,4.688-0.972
							c0.13,0.045,0.2,0.186,0.155,0.317c-0.044,0.13-0.187,0.203-0.317,0.155c-1.405-0.479-3.09-0.132-4.188,0.868
							c-0.327,0.298-0.604,0.641-0.896,1.005c-0.352,0.436-0.716,0.889-1.174,1.25c-1.156,0.913-2.65,1.082-4.095,1.245
							l-0.581,0.067c-2.054,0.253-3.333,0.896-3.913,1.963c-0.187,0.345-0.294,0.726-0.407,1.129
							c-0.101,0.358-0.205,0.729-0.371,1.08c-0.459,0.966-1.304,1.623-2.121,2.258c-0.407,0.317-0.829,0.645-1.189,1.003
							c-2.087,2.074-2.287,5.76-0.438,8.048c0.087,0.107,0.07,0.265-0.037,0.352C130.714,428.146,130.659,428.164,130.604,428.164z"
							/>
					</g>
				</g>
				<g>
					<polygon style="fill:#714A84;" points="137.313,425.049 134.653,442.179 133.523,449.479 109.463,449.479 108.303,442.029 
						105.673,425.049 					"/>
					<path style="fill:#2F2433;" d="M134.653,442.179l-1.13,7.3h-24.06l-1.16-7.45c0.07-0.06,0.14-0.12,0.21-0.17
						c0.58-0.41,1.36-0.53,2.04-0.31c1.31,0.42,2.03,1.91,3.32,2.37c1.33,0.47,2.79-0.32,3.75-1.36c0.95-1.03,1.6-2.32,2.61-3.31
						c1-0.99,2.57-1.63,3.81-0.97c0.75,0.4,1.21,1.17,1.53,1.95c0.33,0.77,0.56,1.6,1.03,2.3c0.46,0.7,1.24,1.28,2.07,1.21
						c1.14-0.09,1.86-1.23,2.86-1.78c0.82-0.45,1.87-0.47,2.71-0.04C134.383,441.989,134.523,442.079,134.653,442.179z"/>
				</g>
			</g>
			<g>
				<path style="fill:#C0DCD3;" d="M182.579,421.923L182.579,421.923c-1.795-2.36-2.767-5.244-2.767-8.209v-4.444h-1.134h-1.126
					h-1.134v4.444c0,2.965-0.972,5.849-2.767,8.209l0,0c-1.775,2.335-2.746,5.182-2.766,8.116l-0.134,19.44h6.801h1.126h6.801
					l-0.134-19.44C185.325,427.105,184.354,424.258,182.579,421.923z"/>
				<path style="fill:#FF792D;" d="M172.789,431.416c-0.104,0.577-0.163,1.164-0.167,1.756l-0.102,14.768h11.188l-0.082-11.92
					C179.911,434.692,176.258,433.232,172.789,431.416z"/>
				<rect x="176.923" y="406.882" style="fill:#FF792D;" width="2.385" height="3.322"/>
			</g>
		</g>
		<g>
			<g>
				<g>
					<rect x="68.684" y="288.827" style="fill:#FFD263;" width="7.303" height="23.883"/>
					<rect x="70.437" y="291.034" style="fill:#FF9C31;" width="3.798" height="15.945"/>
				</g>
				<g>
					
						<rect x="121.415" y="296.682" transform="matrix(6.123234e-17 -1 1 6.123234e-17 -183.5568 433.6897)" style="fill:#FFD263;" width="7.303" height="23.883"/>
					
						<rect x="121.406" y="300.651" transform="matrix(6.123234e-17 -1 1 6.123234e-17 -185.3184 431.9281)" style="fill:#FF9C31;" width="3.798" height="15.945"/>
				</g>
				<g>
					<rect x="75.987" y="295.679" style="fill:#ACB545;" width="7.303" height="17.031"/>
					<rect x="77.74" y="297.253" style="fill:#919625;" width="3.798" height="11.37"/>
				</g>
				
					<rect x="88.229" y="291.034" transform="matrix(0.8291 -0.5591 0.5591 0.8291 -153.1494 102.7662)" style="fill:#FFD263;" width="6.558" height="21.676"/>
			</g>
			<g>
				<path style="fill:#C0DCD3;" d="M146.059,318.961H53.854c-0.207,0-0.375-0.168-0.375-0.375v-5.876
					c0-0.207,0.168-0.375,0.375-0.375h92.204c0.207,0,0.375,0.168,0.375,0.375v5.876
					C146.434,318.793,146.266,318.961,146.059,318.961z M54.229,318.211h91.454v-5.126H54.229V318.211z"/>
				<path style="fill:#C0DCD3;" d="M70.437,328.357h-5.267c-0.207,0-0.375-0.168-0.375-0.375v-9.396
					c0-0.207,0.168-0.375,0.375-0.375h5.267c0.207,0,0.375,0.168,0.375,0.375v9.396C70.812,328.19,70.644,328.357,70.437,328.357z
					 M65.544,327.607h4.517v-8.646h-4.517V327.607z"/>
				<path style="fill:#C0DCD3;" d="M134.744,328.357h-5.267c-0.207,0-0.375-0.168-0.375-0.375v-9.396
					c0-0.207,0.168-0.375,0.375-0.375h5.267c0.207,0,0.375,0.168,0.375,0.375v9.396C135.119,328.19,134.951,328.357,134.744,328.357
					z M129.852,327.607h4.517v-8.646h-4.517V327.607z"/>
			</g>
		</g>
	</g>
	<g>
		<g>
			<g>
				<ellipse style="fill:#C0DCD3;" cx="374.251" cy="426.723" rx="89.761" ry="22.756"/>
				<ellipse style="fill:#FFF5CC;" cx="374.251" cy="426.723" rx="82.528" ry="17.252"/>
			</g>
			<g>
				<path style="fill:#CEBE7C;" d="M356.415,361.762c5.535,13.753,1.601,30.686-8.461,41.574c-1.085,1.174-2.296,2.384-2.587,3.956
					c-0.386,2.086,1.057,4.168,2.914,5.193c1.857,1.025,4.045,1.221,6.161,1.363c10.139,0.68,20.457,0.626,30.223,3.438
					c9.21,2.652,17.954,7.843,27.538,7.701c2.977-0.044,6.155-0.729,8.187-2.904c3.089-3.307,2.366-8.561,1.085-12.902
					c-1.831-6.206-4.386-12.178-6.252-18.373c-1.866-6.195-3.037-12.752-1.996-19.138c0.899-5.517,5.113-13.355,1.308-16.267
					c-9.973-2.417-20.488-4.797-30.747-4.557C373.528,351.084,363.515,354.354,356.415,361.762z"/>
				<path style="fill:#FFF5CC;" d="M406.042,349.268c-3.959-3.925-9.035-6.745-14.24-8.741c-5.205-1.997-10.96-2.691-16.428-1.601
					c-5.468,1.09-10.615,3.667-14.045,8.062c5.638-1.251,11.282-1.996,17.054-2.197c5.771-0.202,11.62,0.424,17.057,2.372
					C398.725,348.339,402.58,349.708,406.042,349.268z"/>
				<g>
					<g>
						<g>
							<g>
								<path style="fill:#2F2433;" d="M382.293,406.797l-3.24,19.56l-9.01,0.35l-9.13,0.35c-1.53,0.03-3.11,0.08-4.74,0.13
									c-10.71,0.36-23.36,1.15-34.31,1.77c-0.16,0.01-0.31,0.01-0.47,0.01c-0.09,0-0.17,0-0.26-0.01c-0.34,0-0.67-0.04-1-0.1
									c-0.52-0.07-1.03-0.2-1.51-0.39l-0.04-0.01c-2.85-1.06-4.97-3.68-5.26-6.89c-0.33-3.7,1.9-7.07,5.26-8.32h0.01
									c0.16-0.06,0.33-0.12,0.5-0.17c0.38-0.12,0.78-0.2,1.19-0.26C354.603,407.947,382.293,406.797,382.293,406.797z"/>
								<path style="fill:#714A84;" d="M373.361,431.832l-0.03,0.183c-0.399,2.449-2.686,4.126-5.141,3.77l-47.057-6.828
									c-0.34,0-0.67-0.04-1-0.1c-0.52-0.07-1.03-0.2-1.51-0.39l-0.04-0.01c-2.85-1.06-4.97-3.68-5.26-6.89
									c-0.33-3.7,1.9-7.07,5.26-8.32h0.01c0.16-0.06,0.33-0.12,0.5-0.17l37.53,10.05l13.42,3.58l0,0
									C372.302,427.309,373.737,429.525,373.361,431.832z"/>
							</g>
						</g>
						<path style="fill:#ACB545;" d="M372.632,428.491c-1.008-0.524-2.164-0.677-3.295-0.786c-3.367-0.326-6.769-0.341-10.128,0.062
							c-1.242,0.149-2.584,0.504-3.6,1.308c-1.22,0.967-1.594,2.443-1.792,3.923c-0.256,1.907-0.131,4.139,1.375,5.337
							c1.359,1.081,3.307,0.891,5.009,0.547c4.008-0.809,7.9-2.166,11.57-3.969C374.547,433.549,376.06,430.272,372.632,428.491z"/>
					</g>
					<g>
						<g>
							<path style="fill:#F0D0C6;" d="M354.255,382.408c6.983-8.706,8.964-12.876,12.277-19.213
								c-2.89-1.779-8.336-5.092-8.424-5.144c-1.772,4.194-3.986,8.22-6.33,12.411c1.14-20.388,1.807-25.402,1.807-25.402
								l-5.27-0.809c-1.655,9.747-3.655,24.697-3.894,34.586c-0.077,3.174,2.561,5.745,5.734,5.627l0,0
								C351.753,384.405,353.254,383.656,354.255,382.408z"/>
							<g>
								<g>
									<path style="fill:#F0D0C6;" d="M351.004,348.196c2.29-1.117,3.288-3.851,2.454-6.259c-1.046-3.02-2.556-6.979-3.246-6.868
										c-1.111,0.179-0.829,3.965-0.829,3.965s-5.877-1.546-6.196,0.045c-0.318,1.59,1.735,1.86,1.735,1.86
										s-1.652-0.214-1.673,0.815c-0.021,1.029,1.423,1.581,1.423,1.581s-1.41-0.055-1.554,0.853
										c-0.144,0.908,1.507,1.279,1.507,1.279s-1.703-0.164-1.784,0.596c-0.129,1.208,6.403,2.822,7.906,2.244
										C350.83,348.277,350.916,348.239,351.004,348.196z"/>
									<path style="fill:#C1877C;" d="M347.146,347.923c-0.054,0-0.103-0.035-0.12-0.089c-0.02-0.066,0.018-0.136,0.084-0.156
										c0.212-0.063,0.388-0.197,0.482-0.369c0.1-0.181,0.105-0.404,0.015-0.569c-0.093-0.169-0.272-0.279-0.449-0.378
										c-0.626-0.35-1.272-0.61-1.92-0.776c-0.066-0.017-0.107-0.084-0.09-0.15c0.016-0.066,0.081-0.107,0.148-0.093
										c0.622,0.141,1.283,0.157,1.909,0.053c0.186-0.032,0.382-0.076,0.543-0.178c0.161-0.102,0.265-0.252,0.275-0.405
										c0.019-0.236-0.169-0.473-0.558-0.7c-0.676-0.396-1.329-0.675-1.941-0.829c-0.064-0.016-0.104-0.077-0.093-0.141
										c0.01-0.065,0.068-0.101,0.132-0.105c0.721,0.05,1.468,0.102,2.199,0.001c0.231-0.031,0.514-0.094,0.645-0.296
										c0.161-0.247,0.017-0.61-0.187-0.844c-0.569-0.653-1.513-0.84-2.431-0.975c-0.065-0.01-0.112-0.07-0.105-0.137
										c0.006-0.067,0.062-0.119,0.132-0.112l1.451,0.088c0.591,0.037,1.194,0.038,1.566-0.337
										c0.188-0.189,0.288-0.47,0.261-0.734c-0.007-0.07-0.023-0.141-0.049-0.212c-0.023-0.065,0.01-0.137,0.074-0.16
										c0.067-0.028,0.137,0.009,0.16,0.074c0.033,0.092,0.055,0.184,0.063,0.273c0.035,0.341-0.089,0.69-0.331,0.935
										c-0.43,0.435-1.097,0.445-1.691,0.415c0.417,0.156,0.794,0.379,1.089,0.718c0.271,0.311,0.441,0.786,0.207,1.145
										c-0.188,0.289-0.558,0.371-0.82,0.407c-0.44,0.061-0.88,0.066-1.318,0.053c0.363,0.15,0.736,0.337,1.115,0.559
										c0.478,0.279,0.706,0.594,0.681,0.935c-0.018,0.231-0.164,0.455-0.393,0.598c-0.198,0.125-0.432,0.178-0.634,0.212
										c-0.279,0.047-0.564,0.071-0.85,0.071c0.298,0.125,0.593,0.269,0.883,0.431c0.199,0.112,0.422,0.25,0.546,0.477
										c0.134,0.242,0.128,0.553-0.015,0.811c-0.127,0.229-0.356,0.406-0.629,0.488
										C347.17,347.921,347.158,347.923,347.146,347.923z"/>
								</g>
								<path style="fill:#CEBE7C;" d="M346.663,338.476c-0.162-0.747-0.518-1.495-1.221-1.869c-0.839-0.445-1.76-0.04-2.508,0.396
									c-0.328,0.191-0.629,0.422-0.931,0.652l0.108-1.225l-13.68-1.204l-0.497,5.655c-0.348,3.96,2.431,7.439,6.209,7.771
									c2.303,0.203,4.441-0.815,5.841-2.535c0.508,1.072,1.307,1.993,2.534,2.254c1.014,0.216,1.922-0.174,2.63-0.826
									c-0.396-0.132-0.759-0.273-1.079-0.419c-0.065,0.039-0.122,0.089-0.191,0.122c-1.586,0.778-2.706-0.766-3.218-2.122
									c0.514-0.901,0.855-1.929,0.953-3.041l0.265-3.016c0.432-0.411,0.888-0.795,1.402-1.108
									c0.686-0.418,1.568-0.912,2.121-0.052c0.091,0.142,0.155,0.31,0.215,0.479c0.346,0.023,0.699,0.062,1.05,0.111
									C346.666,338.491,346.665,338.483,346.663,338.476z"/>
							</g>
						</g>
						<path style="fill:#FF792D;" d="M375.896,341.749l-8.948,2.918c0.703,0,1.245,34.96-6.459,63.663
							c16.044,8.071,39.207,4.24,39.207,4.24c0-34.956-6.119-67.903-6.119-67.903l-8.888-2.918H375.896z"/>
						<path style="fill:#FF792D;" d="M366.949,344.667c-7.284,3.153-10.546,12.753-10.546,12.753
							c4.31,2.074,8.446,5.004,12.423,8.716C370.37,357.006,369.042,352.071,366.949,344.667z"/>
					</g>
					<g>
						<path style="fill:#DB9F40;" d="M386.952,303.209c-3.153-0.809-6.454-1.063-9.689-0.697c0.328-0.446,0.786-0.753,1.304-0.948
							c-3.339-0.24-6.804,0.854-9.318,3.064c-0.053-0.628,0.047-1.295,0.32-1.862c-3.344,2.37-5.108,6.398-5.073,10.496
							c0.014,1.69,0.481,3.407,1.486,5.004c3.498,5.562,10.648,7.302,14.067,12.887c0.746,1.218,1.683,2.589,3.291,2.559
							c1.48-0.028,2.423-1.353,3.182-2.449c2.154-3.106,3.844-6.529,5.059-10.106c1.157-3.404,2.321-7.335,0.791-10.815
							c-1.064-2.42-3.737-4.141-6.261-3.601C385.725,305.602,386,303.945,386.952,303.209z"/>
						<path style="fill:#F0D0C6;" d="M385.821,311.48c-3.97-7.278-17.936-4.794-19.021,0.992c-2.233,11.902-0.538,16.788,2.771,19.6
							c3.828,3.254,6.326,2.839,6.326,9.676c1.447,3.639,7.002,4.135,8.794,0c-0.11-9.056,2.997-15.919,2.997-15.919
							S387.457,314.481,385.821,311.48z"/>
						<path style="fill:#DB9F40;" d="M384.332,313.093c0,0-0.303,7.831,2.784,9.891l1.969-1.501c0,0-0.37-4.544-0.535-8.183
							c-0.165-3.639-2.371-5.844-7.443-6.781c-5.072-0.937-11.021-0.25-13.067,2.536c-1.206,1.642-1.808,3.036-2.091,4.136
							c2.518,2.098,5.802,3.107,9.074,2.918C378.296,315.919,381.461,314.675,384.332,313.093z"/>
						<g>
							<g>
								<circle cx="376.394" cy="322.7" r="0.895"/>
								<path style="fill:#FFFFFF;" d="M376.394,322.456c0,0.181-0.147,0.328-0.328,0.328c-0.181,0-0.328-0.147-0.328-0.328
									s0.147-0.328,0.328-0.328C376.248,322.128,376.394,322.274,376.394,322.456z"/>
							</g>
							<g>
								<circle cx="369.469" cy="322.7" r="0.895"/>
								<circle style="fill:#FFFFFF;" cx="369.141" cy="322.456" r="0.328"/>
							</g>
							<path style="fill:#DB9F40;" d="M370.963,319.195c-1.125-0.783-2.586-0.738-3.646,0.179c-0.198,0.172-0.233,0.517-0.082,0.74
								c0.154,0.228,0.447,0.266,0.646,0.094c0.435-0.376,0.989-0.546,1.53-0.506c0.273,0.02,0.544,0.093,0.795,0.219
								c0.223,0.111,0.439,0.303,0.689,0.159c0.06-0.034,0.111-0.085,0.151-0.145C371.186,319.728,371.177,319.343,370.963,319.195z
								"/>
							<path style="fill:#DB9F40;" d="M374.454,319.195c1.29-0.783,2.965-0.738,4.18,0.179c0.228,0.172,0.267,0.517,0.094,0.74
								c-0.177,0.228-0.512,0.266-0.74,0.094c-0.499-0.376-1.134-0.539-1.754-0.497c-0.313,0.021-0.623,0.093-0.913,0.215
								c-0.256,0.107-0.506,0.297-0.791,0.155c-0.068-0.034-0.127-0.085-0.173-0.145
								C374.198,319.728,374.209,319.343,374.454,319.195z"/>
							<path style="fill:#C1877C;" d="M372.582,327.791c-0.488,0-0.997-0.107-1.487-0.365c-0.229-0.12-0.317-0.403-0.196-0.631
								c0.12-0.228,0.402-0.317,0.631-0.197c1.185,0.621,2.505-0.017,2.883-0.535c0.152-0.207,0.445-0.254,0.654-0.102
								c0.209,0.153,0.254,0.445,0.102,0.654C374.724,327.223,373.707,327.791,372.582,327.791z"/>
							<path style="fill:#C1877C;" d="M371.477,325.129c-0.051,0-0.097-0.033-0.112-0.085c-0.222-0.763,0.038-1.023,0.295-1.106
								c0.26-0.083,0.572-0.016,0.927,0.203c0.055,0.034,0.072,0.106,0.038,0.161c-0.035,0.054-0.107,0.071-0.161,0.038
								c-0.293-0.181-0.54-0.242-0.732-0.179c-0.23,0.074-0.278,0.35-0.142,0.818c0.018,0.062-0.018,0.127-0.08,0.145
								C371.499,325.127,371.487,325.129,371.477,325.129z"/>
						</g>
						<g>
							<path style="fill:#F0D0C6;" d="M390.751,326.091c-1.197,1.427-3.086,1.814-4.219,0.864c-1.133-0.95-1.081-2.878,0.116-4.305
								c1.197-1.428,3.086-1.815,4.219-0.864C392,322.736,391.948,324.664,390.751,326.091z"/>
							<path style="fill:#C1877C;" d="M390.085,322.485c-0.509-0.269-1.188-0.257-1.815,0.035c-0.312,0.145-0.539,0.322-0.694,0.539
								c-0.205,0.289-0.261,0.651-0.148,0.946c0.101,0.264,0.312,0.436,0.498,0.588c0.135,0.11,0.262,0.213,0.335,0.337
								c0.111,0.19,0.083,0.456-0.065,0.62c-0.148,0.163-0.41,0.215-0.61,0.123c-0.118-0.054-0.256-0.003-0.311,0.114
								c-0.054,0.117-0.003,0.256,0.114,0.311c0.129,0.059,0.268,0.088,0.408,0.088c0.278,0,0.556-0.113,0.745-0.321
								c0.284-0.313,0.336-0.805,0.123-1.17c-0.115-0.197-0.289-0.339-0.443-0.464c-0.154-0.126-0.3-0.244-0.357-0.393
								c-0.057-0.148-0.021-0.348,0.093-0.508c0.046-0.065,0.108-0.123,0.177-0.179c0.232-0.002,0.523,0.07,0.67,0.23
								c0.165,0.181,0.244,0.444,0.204,0.685c-0.021,0.128,0.065,0.248,0.193,0.269c0.013,0.002,0.026,0.003,0.038,0.003
								c0.112,0,0.212-0.081,0.23-0.196c0.064-0.385-0.056-0.788-0.32-1.077c-0.098-0.107-0.221-0.18-0.35-0.239
								c0.387-0.104,0.769-0.084,1.065,0.073c0.366,0.193,0.642,0.693,0.454,1.099c-0.054,0.117-0.003,0.256,0.114,0.311
								c0.117,0.054,0.256,0.003,0.311-0.114C391.019,323.602,390.717,322.819,390.085,322.485z"/>
						</g>
					</g>
					<g>
						<g>
							<g>
								<path style="fill:#2F2433;" d="M384.655,426.723l2.009-12.902c0.199-1.518,0.384-3.083,0.581-4.709
									c1.261-10.641,2.382-23.259,3.417-34.177c0.01-0.167,0.031-0.309,0.06-0.469c0.037-0.211,0.074-0.421,0.12-0.628
									l0.176-0.607c0.146-0.501,0.352-0.989,0.613-1.425l0.018-0.047c1.472-2.651,4.381-4.353,7.601-4.163
									c3.706,0.235,6.701,2.948,7.439,6.455l-0.004,0.009c0.035,0.163,0.069,0.326,0.082,0.491
									c0.069,0.411,0.094,0.827,0.084,1.25c-0.145,14.675-0.73,27.121-1.351,36.604C404.82,422.805,394.6,429.827,384.655,426.723
									z"/>
								<path style="fill:#714A84;" d="M406.766,374.55l-15.081,35.598l-7.03,16.575l-8.382-2.6l14.568-50.286l0.176-0.607
									c0.146-0.501,0.352-0.989,0.613-1.425l0.018-0.047c1.472-2.651,4.381-4.353,7.601-4.163
									c3.706,0.235,6.701,2.948,7.439,6.455l-0.004,0.009C406.719,374.222,406.754,374.385,406.766,374.55z"/>
							</g>
						</g>
						<path style="fill:#ACB545;" d="M380.579,430.237c-0.702-0.556-1.228-1.305-1.906-1.89c-1.276-1.099-2.988-1.533-4.65-1.806
							c-1.662-0.273-3.372-0.429-4.917-1.1c-1.66-0.721-3.316-2.32-3.138-4.271c0.207-2.266,1.763-4.884,4.01-5.641
							c1.128-0.38,2.366-0.234,3.523,0.047c4.221,1.022,7.975,3.841,10.134,7.609c0.681,1.189,1.217,2.499,1.261,3.868
							C384.974,429.492,383.062,432.203,380.579,430.237z"/>
					</g>
					<g>
						<g>
							<path style="fill:#F0D0C6;" d="M419.357,358.185c-9.292-5.496-12.981-7.079-19.512-9.497
								c-1.398,3.092-3.995,8.914-4.036,9.008c4.384,1.226,8.658,2.913,13.113,4.707c-20.368,1.452-25.609,0.728-25.609,0.728
								l-0.587,6.307c9.194,1.267,25.612,0.32,36.257-0.755c2.69-0.272,4.578-2.77,4.119-5.434l0,0
								C422.59,361.127,421.236,359.297,419.357,358.185z"/>
							<path style="fill:#F0D0C6;" d="M385.568,364.135c0,0-2.268-2.61-6.307,0.519c-4.039,3.13-5.209,4.09-4.968,5.744
								c0.241,1.654,1.463,6.082,2.591,5.706c1.128-0.376,0.38-2.119,0.38-2.119s0.803,1.125,1.579,1.002
								c0.776-0.124,5.296-1.29,5.735-1.861c0.438-0.571-0.526-1.771-0.526-1.771S388.191,366.948,385.568,364.135z"/>
						</g>
						<path style="fill:#FF792D;" d="M393.578,344.667c0,0,6.119,1.999,11.51,4.804l-5.755,13.37l-8.487-4.023L393.578,344.667z"/>
					</g>
				</g>
				<g>
					<path style="fill:#FFF5CC;" d="M375.343,341.929c-3.184,3.541-4.421,8.16-4.207,12.918c0.214,4.757,0.89,9.668-0.645,14.176
						c-0.377,1.107-1.059,2.31-2.215,2.487c-1.081,0.165-2.092-0.695-2.536-1.694c-0.444-0.999-0.584-2.112-0.641-3.204
						c-0.244-4.711-4.609-8.699-8.685-4.849c-1.569-4.124,2.071-12.603,5.542-15.327
						C365.427,343.711,370.954,342.383,375.343,341.929z"/>
					<path style="fill:#FFF5CC;" d="M384.69,341.749c0,0,5.327,1.312,5.109,7.957c-0.218,6.644-5.106,18.952,0.007,21.24
						c5.113,2.287,17.439-15.729,24.728-15.543C414.534,355.402,401.475,343.377,384.69,341.749z"/>
				</g>
			</g>
			<g>
				<polygon style="fill:#FF9C31;" points="423.094,419.806 422.815,420.401 423.094,414.278 414.128,433.428 414.128,438.956 
					440.57,438.956 449.535,419.806 				"/>
				<polygon style="fill:#FFF5CC;" points="440.565,437.067 414.959,437.317 415.021,433.428 448.563,416.355 448.563,420.453 				
					"/>
				<polygon style="fill:#FFD263;" points="440.57,433.428 414.128,433.428 423.094,414.278 449.535,414.278 				"/>
				<path style="fill:#FF9C31;" d="M435.244,423.453c-0.974,3.242-3.452,5.838-5.534,5.8c-2.082-0.039-2.98-2.698-2.006-5.939
					c0.974-3.242,3.452-5.838,5.534-5.8C435.32,417.552,436.219,420.211,435.244,423.453z"/>
			</g>
		</g>
		<g>
			<g>
				<path style="fill:#C0DCD3;" d="M431.474,324.358c-10.055,0-18.234-8.181-18.234-18.235c0-10.055,8.18-18.234,18.234-18.234
					c10.055,0,18.235,8.18,18.235,18.234C449.709,316.178,441.528,324.358,431.474,324.358z M431.474,288.639
					c-9.641,0-17.484,7.844-17.484,17.484c0,9.642,7.844,17.485,17.484,17.485c9.642,0,17.485-7.844,17.485-17.485
					C448.959,296.482,441.115,288.639,431.474,288.639z"/>
				<path style="fill:#C0DCD3;" d="M431.474,326.698c-11.345,0-20.574-9.23-20.574-20.575c0-11.345,9.229-20.574,20.574-20.574
					c11.345,0,20.575,9.229,20.575,20.574C452.049,317.468,442.818,326.698,431.474,326.698z M431.474,286.299
					c-10.931,0-19.824,8.894-19.824,19.824c0,10.932,8.894,19.825,19.824,19.825c10.932,0,19.825-8.894,19.825-19.825
					C451.299,295.192,442.405,286.299,431.474,286.299z"/>
				<path style="fill:#C0DCD3;" d="M431.474,306.498h-12.739c-0.207,0-0.375-0.168-0.375-0.375c0-0.207,0.168-0.375,0.375-0.375
					h11.919l-5.832-6.744c-0.136-0.156-0.119-0.393,0.038-0.528c0.155-0.136,0.393-0.119,0.528,0.038l6.369,7.364
					c0.097,0.11,0.119,0.268,0.058,0.401C431.754,306.412,431.62,306.498,431.474,306.498z"/>
			</g>
			<g>
				<path style="fill:#C0DCD3;" d="M337.477,372.292h-41.423v-7.518h41.423V372.292z M296.804,371.542h39.923v-6.018h-39.923
					V371.542z"/>
				<path style="fill:#C0DCD3;" d="M298.164,401.342h-4.269l5.761-29.8h7.9L298.164,401.342z M294.804,400.592h2.81l8.92-28.3
					h-6.258L294.804,400.592z"/>
				<path style="fill:#C0DCD3;" d="M339.634,401.342h-4.269l-0.082-0.263l-9.311-29.537h7.9L339.634,401.342z M335.916,400.592h2.81
					l-5.472-28.3h-6.258L335.916,400.592z"/>
			</g>
		</g>
	</g>
	<g>
		<g>
			<path style="fill:#C0DCD3;" d="M213.673,186.925H44.893c-2.137,0-3.875-1.738-3.875-3.875V48.51c0-2.137,1.738-3.875,3.875-3.875
				h168.78c2.137,0,3.875,1.738,3.875,3.875v134.54C217.548,185.186,215.81,186.925,213.673,186.925z M44.893,45.385
				c-1.723,0-3.125,1.402-3.125,3.125v134.54c0,1.723,1.402,3.125,3.125,3.125h168.78c1.723,0,3.125-1.402,3.125-3.125V48.51
				c0-1.723-1.402-3.125-3.125-3.125H44.893z M210.548,179.925h-80.395V51.635h80.395V179.925z M130.904,179.175h78.895V52.385
				h-78.895V179.175z M123.904,179.925H48.018V51.635h75.886V179.925z M48.768,179.175h74.386V52.385H48.768V179.175z"/>
			<g>
				
					<rect x="138.472" y="84.591" transform="matrix(0.7072 -0.707 0.707 0.7072 -12.3822 140.0348)" style="fill:#C0DCD3;" width="48.794" height="0.75"/>
				
					<rect x="147.362" y="102.814" transform="matrix(0.7072 -0.707 0.707 0.7072 -22.6628 151.6568)" style="fill:#C0DCD3;" width="48.794" height="0.75"/>
				
					<rect x="156.253" y="121.036" transform="matrix(0.707 -0.7072 0.7072 0.707 -32.9352 163.3192)" style="fill:#C0DCD3;" width="48.795" height="0.75"/>
			</g>
			<g>
				
					<rect x="54.471" y="84.591" transform="matrix(0.7072 -0.707 0.707 0.7072 -36.9799 80.6429)" style="fill:#C0DCD3;" width="48.794" height="0.75"/>
				
					<rect x="63.361" y="102.814" transform="matrix(0.7071 -0.7071 0.7071 0.7071 -47.2615 92.2781)" style="fill:#C0DCD3;" width="48.795" height="0.75"/>
				
					<rect x="72.252" y="121.036" transform="matrix(0.707 -0.7072 0.7072 0.707 -57.544 103.9162)" style="fill:#C0DCD3;" width="48.794" height="0.75"/>
			</g>
		</g>
		<g>
			<g>
				<g>
					<g>
						<path style="fill:#FF9C31;" d="M83.332,197.372h28.476l-2.486-32.518H85.691c-2.676,0-4.679,2.169-4.475,4.845L83.332,197.372
							z"/>
						<path style="fill:#FFD263;" d="M83.342,197.372h9.54l-2.121-27.748c-0.201-2.634-2.5-4.77-5.135-4.77l0,0
							c-2.634,0-4.607,2.136-4.406,4.77L83.342,197.372z"/>
					</g>
					<g>
						<path style="fill:#FF9C31;" d="M161.221,101.273L161.221,101.273h-9.623l-0.051,1.218
							c-20.642,5.214-36.162,26.569-34.24,49.783l3.735,45.098h66.975l10.016-45.098
							C203.967,125.549,186.446,101.273,161.221,101.273z"/>
						<path style="fill:#FFD263;" d="M178.393,197.372h-66.975l-3.734-45.098c-2.213-26.726,18.689-51.001,43.914-51.001h0
							c25.225,0,42.746,24.275,36.811,51.001L178.393,197.372z"/>
					</g>
					<g>
						<path style="fill:#FF9C31;" d="M188.016,197.372h-31.605l-7.865,18.935h28.658c5.211,0,7.165-2.881,8.134-7.763
							L188.016,197.372z"/>
						<path style="fill:#FFD263;" d="M155.667,210.859c-0.581,3.156-3.333,5.447-6.542,5.447H91.978
							c-7.626,0-8.299-10.466-8.488-16.123l-0.149-2.812h74.81L155.667,210.859z"/>
					</g>
				</g>
				<g>
					<path style="fill:#2F2433;" d="M86.092,248.07L86.092,248.07c-1.076,0-1.799-1.363-1.372-2.584l9.641-29.18h5.595
						l-12.545,30.785C87.152,247.693,86.644,248.07,86.092,248.07z"/>
					<path style="fill:#714A84;" d="M105.081,248.07L105.081,248.07c-1.076,0-1.799-1.363-1.372-2.584l9.641-29.18h5.595
						L106.4,247.091C106.14,247.693,105.633,248.07,105.081,248.07z"/>
					<path style="fill:#714A84;" d="M182.897,248.07L182.897,248.07c1.076,0,1.799-1.363,1.372-2.584l-9.641-29.18h-5.595
						l12.545,30.785C181.837,247.693,182.344,248.07,182.897,248.07z"/>
					<path style="fill:#2F2433;" d="M163.908,248.07L163.908,248.07c1.076,0,1.799-1.363,1.372-2.584l-9.641-29.18h-5.595
						l12.545,30.785C162.848,247.693,163.355,248.07,163.908,248.07z"/>
					<rect x="92.276" y="216.306" style="fill:#714A84;" width="84.437" height="6.312"/>
				</g>
			</g>
			<g>
				<g>
					<path style="fill:#FFF5CC;" d="M142.168,108.609l-9.782,2.285c0,0-6.208,27.365-11.24,58.619
						c8.018,14.922,40.042,11.935,40.042,11.935c4.046-36.718-0.482-68.119-0.482-68.119l-9.185-3.916L142.168,108.609z"/>
					<g>
						<g>
							<g>
								<path style="fill:#EFAD9C;" d="M126.264,132.174c0.415-2.856,1-5.677,1.632-8.489l-10.622,7.668
									c-1.463,3.917-3.421,7.877-5.666,11.754c-13.589-17.325-18.56-28.009-18.56-28.009l-6.481,2.312
									c4.006,10.74,12.621,24.688,19.55,34.409c2.86,4.013,8.81,3.958,11.66-0.063c3.758-5.303,6.687-10.144,8.966-14.385
									C126.153,135.783,126.003,133.975,126.264,132.174z"/>
								<g>
									<path style="fill:#EFAD9C;" d="M96.09,110.784c0.012-0.515,0.11-1.289-0.421-1.625c-0.541-0.341-1.139,0.032-1.368,0.531
										c-0.311,0.68-0.456,1.475-0.67,2.189c-0.072,0.24-0.144,0.48-0.216,0.72c-0.294-1.521-0.348-3.079-0.141-4.61
										c0.134-0.992,0.369-1.968,0.713-2.91c0.262-0.719,0.617-1.594-0.048-2.233c-0.339-0.325-0.76-0.361-1.142-0.226
										c-0.381-0.246-0.9-0.281-1.35-0.044c-0.124,0.066-0.238,0.149-0.346,0.241c-0.092-0.161-0.275-0.27-0.503-0.183
										c-0.68,0.261-1.184,0.74-1.581,1.31c-0.14-0.037-0.297-0.016-0.421,0.115c-2.349,2.486-3.467,5.938-3.13,9.3
										c0.158,1.573,0.601,3.454,1.647,4.725c1.291,1.569,3.418,1.388,5.23,1.083c0.05-0.009,0.09-0.029,0.13-0.049
										c0.164,0.151,0.427,0.197,0.601-0.025C94.946,116.71,96.021,113.793,96.09,110.784z"/>
									<g>
										<path style="fill:#C16B5B;" d="M92.717,102.776c-0.073-0.012-0.149,0.025-0.181,0.096
											c-1.132,2.421-1.677,5.112-1.577,7.781c0.004,0.093,0.088,0.161,0.177,0.163c0.093-0.004,0.167-0.082,0.163-0.177
											c-0.098-2.615,0.436-5.251,1.545-7.623c0.04-0.086,0.004-0.187-0.082-0.226C92.747,102.783,92.732,102.779,92.717,102.776
											z"/>
										<path style="fill:#C16B5B;" d="M90.932,103.191c-0.073-0.012-0.148,0.025-0.181,0.096
											c-1.065,2.255-1.51,4.759-1.289,7.242c0.008,0.094,0.087,0.16,0.185,0.154c0.094-0.008,0.162-0.091,0.154-0.185
											c-0.216-2.422,0.218-4.866,1.257-7.067c0.04-0.084,0.004-0.186-0.081-0.226C90.962,103.198,90.947,103.193,90.932,103.191
											z"/>
										<path style="fill:#C16B5B;" d="M88.781,104.39c-0.077-0.007-0.152,0.04-0.177,0.116c-0.636,1.915-0.915,3.909-0.831,5.927
											c0.004,0.093,0.077,0.167,0.177,0.163c0.094-0.004,0.166-0.084,0.163-0.177c-0.083-1.976,0.191-3.929,0.813-5.806
											c0.03-0.089-0.019-0.185-0.108-0.215C88.806,104.394,88.793,104.391,88.781,104.39z"/>
									</g>
								</g>
							</g>
							<g>
								<polygon style="fill:#919625;" points="105.631,106.296 88.478,117.316 84.799,92.576 101.952,81.555 								"/>
								<polygon style="fill:#FFF5CC;" points="104.849,108.731 88.478,117.316 84.799,92.576 101.17,83.991 								"/>
								<polygon style="fill:#ACB545;" points="107.409,118.257 88.478,117.316 84.799,92.576 103.731,93.517 								"/>
							</g>
						</g>
						<g>
							<path style="fill:#FFF5CC;" d="M132.386,110.894c-8.034,2.687-17.971,20.938-17.971,20.938l12.139,7.253
								C129.054,130.714,131.023,121.227,132.386,110.894z"/>
						</g>
					</g>
				</g>
				<g>
					<path style="fill:#5B3D31;" d="M154.507,98.731c-0.966,1.318-2.215,2.571-3.784,2.465c-1.801-0.122-2.718-1.76-3.435-3.208
						c-3.288-6.637-11.117-9.296-14.495-15.914c-0.414-0.812-0.696-1.807-0.625-2.717c-0.894-1.109-1.823-2.454-2.072-3.861
						c-0.249-1.407-0.016-2.929,0.796-4.1c0.867-1.25,2.309-1.998,3.785-2.327c1.477-0.329,3.007-0.285,4.518-0.239
						c-0.541-0.549-0.294-1.752,0.32-2.215c0.614-0.464,1.441-0.509,2.205-0.452c2.393,0.181,4.712,1.223,6.446,2.897
						c-0.385-0.249-0.456-0.921-0.223-1.319c0.233-0.397,0.7-0.611,1.157-0.637c0.457-0.026,0.907,0.111,1.334,0.278
						c2.02,0.792,3.744,2.331,4.77,4.258c1.302-0.071,2.943,0.263,4.072,0.922c0.401,0.234,0.787,0.518,1.049,0.905
						c0.262,0.386,0.386,0.889,0.239,1.333c-0.148,0.444-0.608,0.787-1.066,0.714c1.876,3.616,1.863,7.988,0.726,11.906
						c-0.996,3.429-2.708,6.71-4.636,9.701C155.276,97.602,154.917,98.172,154.507,98.731z"/>
					<path style="fill:#EFAD9C;" d="M155.49,77.327c-3.556-8.102-18.635-6.738-20.318-0.684
						c-3.463,12.453-2.107,17.804,1.154,21.097c3.773,3.81,6.468,3.598,5.843,10.868c1.206,4.002,7.068,5.038,9.352,0.804
						c0.711-9.64,4.643-16.655,4.643-16.655S156.956,80.668,155.49,77.327z"/>
					<path style="fill:#5B3D31;" d="M153.759,78.906c-2.867,3.457-7.924,2.169-7.924,2.169l3.18-2.296c0,0-7.702,3.709-15.14,1.555
						c0,0-0.872-2.872,2.927-7.212c2.43-2.776,8.819-2.963,14.128-1.502c5.308,1.461,7.452,4.007,7.295,7.892
						c-0.157,3.885-0.179,8.751-0.179,8.751l-2.231,1.417C152.72,87.207,153.759,78.906,153.759,78.906z"/>
					<g>
						<g>
							<path d="M145.392,88.479c-0.045,0.526-0.508,0.916-1.034,0.87c-0.526-0.045-0.916-0.508-0.87-1.034
								c0.045-0.526,0.508-0.915,1.034-0.87C145.047,87.49,145.437,87.953,145.392,88.479z"/>
							<path style="fill:#FFFFFF;" d="M144.462,88.137c-0.017,0.193-0.186,0.335-0.379,0.319c-0.193-0.017-0.335-0.186-0.319-0.379
								c0.017-0.193,0.186-0.335,0.379-0.319C144.336,87.775,144.478,87.944,144.462,88.137z"/>
						</g>
						<g>
							<path d="M138.026,87.846c-0.045,0.526-0.508,0.916-1.034,0.87c-0.526-0.045-0.916-0.508-0.87-1.034
								c0.045-0.526,0.508-0.915,1.034-0.87C137.682,86.857,138.072,87.32,138.026,87.846z"/>
							<path style="fill:#FFFFFF;" d="M137.097,87.504c-0.016,0.193-0.186,0.335-0.379,0.319c-0.193-0.017-0.335-0.186-0.319-0.379
								c0.017-0.193,0.186-0.335,0.379-0.319C136.97,87.142,137.113,87.311,137.097,87.504z"/>
						</g>
						<path style="fill:#5B3D31;" d="M138.984,84.173c-1.124-0.935-2.682-1.021-3.894-0.143c-0.227,0.164-0.295,0.528-0.155,0.78
							c0.143,0.257,0.451,0.324,0.678,0.159c0.497-0.36,1.102-0.49,1.674-0.398c0.289,0.047,0.57,0.149,0.826,0.305
							c0.227,0.138,0.439,0.363,0.719,0.233c0.067-0.031,0.126-0.08,0.174-0.141C139.173,84.76,139.198,84.35,138.984,84.173z"/>
						<path style="fill:#5B3D31;" d="M142.696,84.492c1.443-0.715,3.22-0.513,4.429,0.572c0.226,0.203,0.237,0.574,0.033,0.796
							c-0.209,0.227-0.569,0.236-0.796,0.033c-0.496-0.446-1.157-0.677-1.819-0.689c-0.335-0.006-0.671,0.042-0.99,0.145
							c-0.282,0.091-0.566,0.27-0.855,0.092c-0.069-0.043-0.127-0.102-0.171-0.17C142.376,85.036,142.422,84.627,142.696,84.492z"/>
						<path style="fill:#C16B5B;" d="M139.919,93.463c-0.519-0.045-1.05-0.205-1.548-0.524c-0.232-0.149-0.3-0.458-0.151-0.689
							c0.149-0.232,0.457-0.3,0.689-0.151c1.203,0.769,2.666,0.211,3.115-0.305c0.181-0.207,0.497-0.23,0.705-0.049
							c0.208,0.181,0.229,0.496,0.048,0.705C142.25,93.054,141.116,93.565,139.919,93.463z"/>
						<path style="fill:#C16B5B;" d="M138.988,90.53c-0.054-0.005-0.1-0.044-0.112-0.1c-0.166-0.832,0.134-1.084,0.415-1.149
							c0.285-0.065,0.61,0.035,0.968,0.3c0.055,0.041,0.067,0.119,0.026,0.175c-0.042,0.055-0.121,0.066-0.175,0.026
							c-0.295-0.219-0.552-0.306-0.762-0.257c-0.252,0.058-0.328,0.346-0.226,0.857c0.013,0.067-0.03,0.133-0.098,0.147
							C139.011,90.53,138.999,90.531,138.988,90.53z"/>
					</g>
					<g>
						<path style="fill:#EFAD9C;" d="M159.396,93.316c-1.404,1.409-3.448,1.647-4.566,0.533c-1.118-1.114-0.887-3.159,0.517-4.568
							c1.404-1.409,3.448-1.647,4.566-0.533C161.031,89.862,160.8,91.907,159.396,93.316z"/>
						<path style="fill:#C16B5B;" d="M159.018,89.42c-0.517-0.333-1.24-0.382-1.933-0.129c-0.346,0.126-0.603,0.293-0.787,0.51
							c-0.244,0.288-0.338,0.669-0.244,0.993c0.083,0.291,0.292,0.493,0.476,0.671c0.133,0.129,0.259,0.251,0.325,0.389
							c0.1,0.212,0.046,0.493-0.126,0.653c-0.172,0.159-0.456,0.191-0.66,0.075c-0.12-0.069-0.272-0.026-0.341,0.093
							c-0.068,0.119-0.027,0.272,0.093,0.341c0.131,0.075,0.277,0.118,0.425,0.131c0.295,0.025,0.602-0.069,0.822-0.273
							c0.331-0.307,0.431-0.825,0.238-1.233c-0.104-0.22-0.277-0.387-0.429-0.534c-0.153-0.148-0.297-0.287-0.344-0.451
							c-0.047-0.163,0.01-0.372,0.146-0.532c0.055-0.064,0.126-0.121,0.205-0.174c0.247,0.019,0.55,0.122,0.692,0.306
							c0.159,0.208,0.218,0.494,0.154,0.747c-0.034,0.134,0.047,0.269,0.18,0.303c0.013,0.004,0.027,0.006,0.04,0.007
							c0.12,0.01,0.232-0.067,0.263-0.187c0.103-0.404,0.013-0.843-0.242-1.174c-0.095-0.123-0.219-0.212-0.351-0.286
							c0.421-0.076,0.825-0.019,1.126,0.175c0.371,0.239,0.62,0.795,0.382,1.211c-0.068,0.12-0.026,0.272,0.093,0.341
							c0.12,0.068,0.272,0.027,0.341-0.093C159.909,90.693,159.659,89.833,159.018,89.42z"/>
					</g>
				</g>
			</g>
			<g>
				<g>
					<g>
						<path style="fill:#DB8F7F;" d="M138.244,175.117c0,0-23.916-9.927-58.818-9.332c-7.722,0.132-13.832,6.597-13.549,14.315
							c0.639,17.454,1.281,40.957,3.475,57.983c3.316,1.875,4.355,2.473,7.555,0.291c0,0,6.106-34.102,4.157-55.26l38.378,12.721
							l20.497-0.38L138.244,175.117z"/>
						<path style="fill:#DB8F7F;" d="M69.351,238.083c-4.548,3.554-11.476,3.93-14.922,6.035c-1.698,1.038-0.97,3.683,1.017,3.785
							c7.503,0.387,13.549,0.026,17.22-0.331c2.27-0.221,4.024-2.072,4.123-4.351c0.062-1.443,0.114-3.145,0.117-4.848
							L69.351,238.083z"/>
					</g>
					<path style="fill:#2F2433;" d="M138.244,175.117c0,0-16.357-6.781-41.744-8.795c0.654,3.828,0.742,7.775,0.46,11.474
						c-0.278,3.645-0.994,6.982-1.999,10.162l24.48,7.878l20.497-0.38L138.244,175.117z"/>
				</g>
				<g>
					<g>
						<path style="fill:#EFAD9C;" d="M92.407,238.083c-4.548,3.554-11.476,3.93-14.922,6.035c-1.698,1.038-0.97,3.683,1.017,3.785
							c7.503,0.387,13.549,0.026,17.22-0.331c2.27-0.221,4.024-2.072,4.123-4.351c0.062-1.443,0.114-3.145,0.117-4.848
							L92.407,238.083z"/>
						<path style="fill:#EFAD9C;" d="M161.3,175.117c0,0-23.918-9.928-58.822-9.332c-7.72,0.132-13.829,6.596-13.546,14.312
							c0.639,17.454,1.281,40.959,3.475,57.986c1.439,1.685,4.746,2.156,7.555,0.291c0,0,6.966-43.444,2.941-56.2
							c3.577,1.231,32.229,12.476,32.229,12.476c2.171,0.784,4.465,1.167,6.773,1.132l0.683-0.011
							C153.628,195.6,162.217,186.12,161.3,175.117L161.3,175.117z"/>
					</g>
					<path style="fill:#714A84;" d="M161.602,175.234c0,0-18.211-7.542-45.639-9.161c1.126,6.991,0.379,14.058-1.589,21.081
						l20.757,7.496c2.171,0.784,4.465,1.167,6.773,1.132l0.683-0.01C153.628,195.6,162.518,186.236,161.602,175.234z"/>
				</g>
			</g>
			<g>
				<path style="fill:#FF9C31;" d="M181.857,197.372h-28.476l6.701-32.518h23.632c2.676,0,4.398,2.169,3.846,4.845L181.857,197.372z
					"/>
				<path style="fill:#FFD263;" d="M158.151,197.372h-9.54l5.718-27.748c0.543-2.634,3.119-4.77,5.753-4.77l0,0
					c2.635,0,4.33,2.136,3.787,4.77L158.151,197.372z"/>
			</g>
			<g>
				<g>
					<path style="fill:#EFAD9C;" d="M165.401,119.635c0,0,15.152,21.278,10.97,79.703l-6.856-0.589c0,0,1.777-35.812-7.944-58.547
						L165.401,119.635z"/>
					<g>
						<path style="fill:#EFAD9C;" d="M166.617,204.876c-0.012,0.515-0.11,1.289,0.421,1.625c0.541,0.341,1.139-0.032,1.368-0.531
							c0.311-0.68,0.456-1.475,0.67-2.189c0.072-0.24,0.144-0.48,0.216-0.72c0.295,1.521,0.348,3.079,0.141,4.61
							c-0.134,0.992-0.369,1.968-0.713,2.91c-0.262,0.719-0.617,1.594,0.048,2.233c0.339,0.325,0.76,0.361,1.141,0.227
							c0.381,0.246,0.9,0.281,1.35,0.044c0.124-0.066,0.238-0.149,0.346-0.241c0.092,0.161,0.275,0.27,0.503,0.183
							c0.68-0.261,1.184-0.74,1.581-1.31c0.14,0.037,0.297,0.016,0.421-0.115c2.349-2.486,3.467-5.937,3.13-9.3
							c-0.158-1.573-0.601-3.454-1.647-4.725c-1.291-1.569-3.419-1.388-5.23-1.083c-0.05,0.009-0.09,0.029-0.13,0.049
							c-0.164-0.151-0.427-0.197-0.601,0.025C167.76,198.95,166.685,201.866,166.617,204.876z"/>
						<g>
							<path style="fill:#C16B5B;" d="M169.989,212.883c0.073,0.012,0.149-0.025,0.181-0.096c1.132-2.421,1.677-5.112,1.577-7.781
								c-0.004-0.093-0.088-0.161-0.176-0.163c-0.093,0.004-0.167,0.082-0.163,0.177c0.098,2.615-0.436,5.251-1.545,7.623
								c-0.04,0.086-0.004,0.187,0.082,0.226C169.959,212.876,169.974,212.88,169.989,212.883z"/>
							<path style="fill:#C16B5B;" d="M171.774,212.469c0.073,0.012,0.148-0.025,0.181-0.096c1.065-2.255,1.51-4.759,1.289-7.242
								c-0.008-0.094-0.088-0.16-0.185-0.154c-0.094,0.008-0.162,0.091-0.154,0.185c0.216,2.422-0.218,4.866-1.257,7.067
								c-0.04,0.084-0.004,0.186,0.081,0.226C171.744,212.462,171.759,212.466,171.774,212.469z"/>
							<path style="fill:#C16B5B;" d="M173.925,211.269c0.077,0.007,0.152-0.04,0.177-0.116c0.636-1.916,0.915-3.909,0.831-5.927
								c-0.004-0.093-0.078-0.167-0.177-0.163c-0.094,0.004-0.166,0.084-0.163,0.177c0.083,1.976-0.191,3.929-0.814,5.806
								c-0.03,0.089,0.019,0.185,0.108,0.215C173.9,211.266,173.913,211.268,173.925,211.269z"/>
						</g>
					</g>
				</g>
				<path style="fill:#FFF5CC;" d="M160.705,113.329c7.458,4.019,13.541,22.576,13.541,22.576l-12.769,6.234L160.705,113.329z"/>
			</g>
		</g>
	</g>
</g>
</svg>
