<svg width="430" height="456" viewBox="0 0 430 456" fill="none" xmlns="http://www.w3.org/2000/svg">
<path d="M263.638 0.163537L237.222 26.6794L263.638 53.1952L290.054 26.6794L263.638 0.163537Z" fill="#DF4642"/>
<path d="M165.653 0.303768L140.865 25.1859L165.653 50.068L190.441 25.1859L165.653 0.303768Z" fill="#B13337"/>
<path d="M193.755 42.2091L214.647 21.2379V0.0889217L165.78 49.1403L116.914 0.0889217V90.5495H214.647V63.358L193.755 42.2091Z" fill="#DF4642"/>
<path d="M263.513 49.1403L214.647 0.0889285V21.2379L235.716 42.2091L214.647 63.358V90.5495H312.556V0.0889285L263.513 49.1403Z" fill="#B13337"/>
<path d="M420.381 202.87L214.647 455.947V333.496L324.065 199.138L266.169 128.938H366.557L420.381 202.87Z" fill="#B13337"/>
<path d="M8.91197 202.87L214.646 455.947V333.496L105.405 199.138L163.301 128.938H62.9127L8.91197 202.87Z" fill="#DF4642"/>
<path d="M271.835 192.029L214.647 257.964V192.029H271.835Z" fill="#B13337"/>
<path d="M214.647 192.029V257.964L157.459 192.029H214.647Z" fill="#DF4642"/>
</svg>
